<?xml version="1.0" encoding="utf-8"?>
<!-- Generator: Adobe Illustrator 21.1.0, SVG Export Plug-In . SVG Version: 6.00 Build 0)  -->
<svg version="1.1" id="Layer_1" xmlns="http://www.w3.org/2000/svg" xmlns:xlink="http://www.w3.org/1999/xlink" x="0px" y="0px"
	 viewBox="0 0 400 70" style="enable-background:new 0 0 400 70;" xml:space="preserve">
<style type="text/css">
	.st0{fill:#6C6D6E;}
	.st1{fill:#CA6364;}
	.st2{fill:#6CB8C7;}
	.st3{fill:#B3DDE4;}
	.st4{fill:#A6A7A8;}
	.st5{fill:#E6B4B4;}
	.st6{fill:#DA9192;}
	.st7{fill:#555656;}
	.st8{fill:#494A4B;}
	.st9{fill:#91CBD6;}
	.st10{fill:#B24042;}
	.st11{fill:#F18283;}
</style>
<g>
	<g>
		<path class="st0" d="M209.3,5.3c1.5,0,3.1,0.1,4.6,0c1.2-0.1,1.8,0.4,2.2,1.4c0.8,1.9,1.6,3.7,2.4,5.6c1.2,2.6,2.2,5.2,3.3,7.8
			c1.9,4.5,3.8,8.9,5.7,13.4c0.2,0.5,0.2,1.4,1,1.4c0.5,0,0.6-0.9,0.8-1.3c1.6-4,3.2-7.9,4.8-11.9c1.4-3.6,2.8-7.2,4.3-10.8
			c0.6-1.5,1.3-3.1,1.9-4.6c0.2-0.6,0.6-0.8,1.3-0.8c3.1,0,6.1,0,9.2,0c1.2,0,1.3,0.2,0.9,1.2c-1.3,3.3-2.7,6.6-4,9.8
			c-2.1,5.1-4.2,10.2-6.3,15.3c-2.3,5.5-4.6,11-6.9,16.5c-1.9,4.7-3.8,9.4-5.8,14c-0.1,0.2-0.1,0.4-0.2,0.6
			c-0.1,0.2-0.2,0.4-0.5,0.4c-0.2,0-0.3-0.2-0.4-0.4c-0.8-1.9-1.6-3.7-2.4-5.6c-2-4.7-4.1-9.4-6.1-14c-0.1-0.1-0.2-0.3-0.2-0.4
			c-0.1-0.2-0.1-0.6-0.4-0.6c-0.4,0-0.5,0.4-0.6,0.6c-0.4,0.8-0.7,1.7-1.1,2.5c-2,4.9-3.9,9.7-5.9,14.6c-0.4,0.9-0.7,1.8-1.1,2.7
			c-0.1,0.2-0.1,0.6-0.4,0.6c-0.3,0-0.5-0.3-0.6-0.6c-1.2-2.7-2.4-5.5-3.5-8.2c-1.9-4.5-3.8-8.9-5.7-13.4
			c-2.3-5.5-4.8-10.9-7.1-16.4c-2.1-5.1-4.4-10.1-6.6-15.1c-0.4-1-0.9-2-1.3-3.1c-0.3-0.9-0.2-1.1,0.7-1.1c3.5,0,6.9,0,10.4,0
			c1.1,0,1.4,0.7,1.7,1.4c0.6,1.2,1.1,2.4,1.6,3.6c1.1,2.6,2.2,5.3,3.3,8c1.1,2.6,2.2,5.1,3.3,7.6c1.2,2.9,2.4,5.8,3.6,8.7
			c0.1,0.2,0.1,0.4,0.3,0.5c0.3,0,0.5-0.2,0.6-0.4c0.5-1.1,0.9-2.3,1.5-3.3c1.3-2.1,0.9-3.9-0.1-6.1c-2.8-6.1-5.4-12.4-8-18.6
			c-0.5-1.1-0.3-1.3,0.9-1.3C206,5.3,207.6,5.3,209.3,5.3z M210.3,7.8c-1,0-2,0-3.1,0c-1.1,0-1.1,0-0.7,1c0.4,1.1,0.9,2.2,1.4,3.3
			c2.2,5,4.4,10.1,6.5,15.2c0.3,0.6,0.3,1.2,0.1,1.8c-1.4,3.3-2.8,6.6-4.3,9.9c-0.1,0.3-0.1,0.9-0.7,0.9c-0.5,0-0.4-0.5-0.5-0.8
			c-1.3-3.2-2.6-6.4-4-9.5c-3-6.8-5.9-13.7-8.8-20.6c-0.3-0.8-0.7-1.1-1.6-1.1c-1.9,0.1-3.8,0-5.6,0c-1.8,0-1.8,0-1.1,1.7
			c0.1,0.1,0.1,0.3,0.2,0.4c1.9,4.3,3.7,8.5,5.6,12.8c1.9,4.4,3.7,8.7,5.6,13.1c2.1,5,4.3,9.9,6.5,14.9c1,2.3,2.1,4.6,3,7
			c0.1,0.3,0.3,0.6,0.6,0.6c0.4,0,0.4-0.4,0.5-0.6c0.7-1.7,1.4-3.4,2-5.1c2-4.9,3.9-9.7,5.9-14.6c0.1-0.3,0.2-0.6,0.6-0.7
			c0.5,0,0.5,0.5,0.6,0.8c1.9,4.2,3.7,8.4,5.5,12.6c1,2.4,2.1,4.7,3.1,7.1c0.1,0.2,0.2,0.5,0.5,0.5c0.2,0,0.3-0.2,0.4-0.4
			c0.1-0.2,0.2-0.5,0.3-0.7c2-4.9,4-9.7,6-14.6c1.5-3.7,3.1-7.4,4.6-11.1c2-5,4.1-9.9,6.1-14.9c1.1-2.6,2.1-5.3,3.2-7.9
			c0.3-0.8,0.1-1-0.7-1c-1.7,0-3.5,0.1-5.2,0c-1-0.1-1.5,0.4-1.8,1.2c-1.5,3.8-3,7.6-4.5,11.4c-2,5.1-4.1,10.2-6.1,15.3
			c-0.5,1.1-0.9,2.3-1.3,3.4c-0.1,0.3-0.4,0.7-0.7,0.7c-0.3,0-0.3-0.4-0.5-0.7c-0.4-1.1-0.9-2.1-1.4-3.2c-1.9-4.5-3.8-8.9-5.7-13.4
			c-1.9-4.6-3.9-9.1-5.8-13.7c-0.3-0.7-0.8-1.1-1.6-1.1C212.3,7.9,211.3,7.8,210.3,7.8z"/>
		<path class="st0" d="M88.6,32.4c0-9.2,0-18.4,0-27.6c0-0.2,0-0.4,0-0.6c0-0.2-0.1-0.5,0.2-0.6c0.3-0.1,0.5,0.1,0.6,0.3
			c1.8,2.3,4.1,4.3,6.2,6.4c3.4,3.4,6.8,6.9,10.1,10.4c2.3,2.4,4.6,4.7,7,7.1c2,2,4,4.1,5.9,6.2c0.2,0.2,0.4,0.4,0.7,0.6
			c0.4,0.2,0.7,0.1,0.7-0.4c0-0.4,0-0.8,0-1.2c0-8.5,0-17,0-25.5c0-0.2,0-0.4,0-0.6c0-1.4,0-1.4,1.5-1.4c2.7,0,5.4,0,8.1,0
			c1.3,0,1.5,0.2,1.5,1.5c0,0.3,0,0.5,0,0.8c0,18.2,0,36.3,0,54.5c0,0.2,0,0.4,0,0.6c0,0.2,0,0.6-0.3,0.6c-0.3,0.1-0.5-0.1-0.7-0.3
			c-2.2-2.7-4.8-5-7.2-7.4c-2-2-3.9-4-5.9-6c-2.1-2-3.9-4.2-6-6.1c-1.5-1.4-2.8-2.9-4.3-4.2c-1.4-1.3-2.8-2.7-4.1-4.2
			c-0.7-0.8-1.6-1.3-2.3-2.2c-0.3-0.4-0.7-0.2-0.8,0.3c0,0.4,0,0.8,0,1.2c0,8.5,0,17,0,25.5c0,1.7,0,1.7-1.6,1.7c-2.6,0-5.3,0-7.9,0
			c-1.5,0-1.5,0-1.5-1.5C88.6,50.8,88.6,41.6,88.6,32.4z M121.7,8.4c-0.4,0.1-0.4,0.1-0.4,0.7c0,9.1,0,18.1,0,27.2
			c0,0.5-0.1,1,0.4,1.4c0.1,0.4,0.2,0.9,0.3,1.3c0,0.2,0.1,0.4-0.1,0.5c-0.2,0.1-0.4,0-0.6-0.1c-0.2-0.1-0.3-0.3-0.4-0.4
			c-1.8-1.8-3.6-3.5-5.2-5.4c-0.6-0.7-1.4-1.2-1.9-1.9c-1.3-1.7-2.9-3-4.4-4.6c-1.4-1.5-2.9-3-4.4-4.5c-1.9-1.9-3.7-3.9-5.6-5.7
			c-1.6-1.5-3.1-3.1-4.6-4.7c-1.1-1.1-2.3-2.2-3.3-3.5c-0.3-0.4-0.7-0.5-0.8,0.3c0,0.2,0,0.4,0,0.6c-0.1,16.1,0.1,32.1-0.1,48.2
			c0,0.9,0.4,1.1,1.2,1.1c1.6,0,3.2,0,4.7,0c1.4,0,1.4-0.1,1.4-1.5c0-4.3,0-8.6,0-13c0-5.4,0-10.8,0-16.2c0-0.3-0.2-0.8,0.3-0.9
			c0.3-0.1,0.5,0.2,0.7,0.5c0.7,1.1,1.8,1.8,2.7,2.8c1.4,1.6,3,3.1,4.5,4.6c1.3,1.3,2.5,2.6,3.8,3.8c2.1,2,4,4.1,6.1,6.1
			c2,1.9,3.9,4,5.9,6c2,2,4,3.9,6,5.9c0.4,0.4,0.7,1.1,1.2,1c0.6-0.2,0.3-1,0.3-1.5c0-15.8,0-31.5,0-47.3c0-0.2,0-0.4,0-0.6
			c0.1-0.8-0.3-1.1-1.1-1.1c-1.7,0-3.5,0-5.2,0C122.5,7.8,122.1,8,121.7,8.4z M89.5,5.5c-0.4,0.7-0.3,1.1-0.3,1.6
			c0,16.9,0,33.8,0,50.8c0,0.5-0.2,1.5,0.2,1.5c0.7-0.1,0.3-1,0.3-1.5c0-16,0-32,0-48C89.8,8.3,89.4,7.1,89.5,5.5z M98.6,28.6
			c0,0-0.1,0-0.1,0c0,10,0,20,0,30.1c0,0,0.1,0,0.1,0C98.6,48.6,98.6,38.6,98.6,28.6z M99.2,32.6c0,0-0.1,0-0.1,0c0,9,0,18,0,27
			c0,0,0.1,0,0.1,0C99.2,50.6,99.2,41.6,99.2,32.6z M91.3,59.9c0,0.1,0,0.1,0,0.2c2.1,0,4.1,0,6.2,0c0-0.1,0-0.1,0-0.2
			C95.4,59.9,93.4,59.9,91.3,59.9z"/>
		<path class="st0" d="M85.6,6.7c-0.3,1.2-1.4,1.8-2,2.7c-2,2.6-4.3,5-6.3,7.6c-2.5,3.2-5.2,6.2-7.7,9.4c-1.6,1.9-3.1,3.9-4.8,5.8
			c-0.5,0.6-0.7,0.9,0,1.6c1.9,2,3.6,4.2,5.4,6.3c1.7,2,3.3,4.1,4.9,6.1c2.2,2.7,4.4,5.4,6.6,8.1c1.6,2,3.1,4.1,4.9,5.9
			c0.3,0.3,0.7,0.5,0.5,1c-0.2,0.4-0.6,0.2-1,0.2c-4.2,0-8.3,0-12.5,0c-0.7,0-1.1-0.2-1.6-0.8c-2.3-2.6-4.5-5.4-6.7-8.1
			c-2.1-2.5-4.2-4.9-6.2-7.6c-0.6-0.8-1.3-1.6-2-2.4c-0.5-0.6-1-0.8-1.6,0c-0.6,0.9-1.4,1.7-2.1,2.5c-0.7,0.9-1.1,1.8-1,3
			c0.1,3.9,0,7.8,0,11.7c0,1.5,0,1.5-1.5,1.5c-2.7,0-5.4,0-8.1,0c-1.5,0-1.5,0-1.5-1.5c0-6.6,0-13.2,0-19.8c0-10.9,0-21.8,0-32.6
			c0-0.4,0-0.8,0-1.2c0.1-0.6,0.3-1,1.1-1c3,0,6,0,9,0c0.7,0,0.9,0.3,1,0.9c0,0.4,0,0.8,0,1.2c0,6.5,0,12.9,0,19.4
			c0,0.4,0,0.7,0,1.1c0,0.2,0,0.6,0.3,0.6c0.3,0.1,0.5-0.2,0.7-0.4c2.2-2.7,4.5-5.3,6.6-8c3-3.8,6.2-7.4,9.2-11.3
			c0.7-0.9,1.4-1.8,2.2-2.6c0.8,0.3,1.6,0.2,2.4,0.2c3.4,0,6.8,0,10.2,0C84.4,6.3,85,6.3,85.6,6.7z M43,33.6
			C43,33.6,43,33.6,43,33.6c0,8.1,0,16.3,0,24.4c0,0.8,0.3,1,0.9,1c1.7,0,3.5,0,5.2,0c1.3,0,1.3,0,1.3-1.4c0-3.6,0-7.2,0-10.8
			c0-0.9,0.2-1.5,0.8-2.2c1.3-1.4,2.5-3,3.7-4.5c1-1.3,1.7-1.3,2.7,0.1c1.4,2,3,3.9,4.6,5.7c0.5,0.6,0.7,1.3,1.3,1.8
			c1,0.9,1.9,1.9,2.7,3c1.7,2.5,3.9,4.6,5.6,7.1c0.4,0.5,1,1.2,1.8,1.2c2.7,0,5.5,0,8.2,0c0.5,0,0.9-0.2,0.4-0.7
			c-0.5-0.5-0.8-1.1-1.3-1.7c-1.2-1.4-2.5-2.7-3.6-4.2c-1.6-2.2-3.4-4.2-5.1-6.3c-1.1-1.4-2.5-2.7-3.5-4.2c-2.1-2.8-4.4-5.4-6.7-8.1
			c-0.4-0.4-0.7-1-0.3-1.3c1.2-1,1.9-2.3,2.9-3.5c1.8-2,3.5-4.1,5.3-6.2c2.2-2.6,4.3-5.3,6.4-7.9c1.7-2.1,3.6-4.2,5.2-6.4
			c0.2-0.2,0.5-0.4,0.3-0.8c-0.2-0.2-0.5-0.1-0.7-0.1c-2.3,0-4.7,0.1-7,0c-1.2-0.1-2,0.4-2.6,1.3c-1,1.5-2.2,2.7-3.3,4.1
			c-1.7,2.2-3.6,4.4-5.4,6.5c-2.1,2.6-4.3,5.1-6.4,7.6c-1.6,2-3.3,4-4.9,6c-0.3,0.4-0.5,0.9-1,0.8c-0.4-0.1-0.2-0.7-0.2-1.1
			c0-5.2,0-10.4,0-15.6c0-2.7,0-5.5,0-8.2c0-1.2,0-1.3-1.3-1.3c-1.5,0-2.9,0-4.4,0c-1.7,0-1.7,0-1.7,1.6C43,17.5,43,25.5,43,33.6z
			 M41.8,6.6c0,0-0.1,0-0.1,0c0,17.9,0,35.7,0,53.6c0,0,0.1,0,0.1,0C41.8,42.3,41.8,24.5,41.8,6.6z M42.5,8.2c0,0-0.1,0-0.1,0
			c0,16.8,0,33.6,0,50.4c0,0,0.1,0,0.1,0C42.5,41.8,42.5,25,42.5,8.2z M51.6,6.6c-0.1,0-0.1,0-0.2,0c0,7.4,0,14.8,0,22.1
			c0.1,0,0.1,0,0.2,0C51.6,21.4,51.6,14,51.6,6.6z M43,6.2c-0.2,0-0.3-0.1-0.4,0c-0.1,0-0.2,0.1,0,0.2c0.1,0,0.2,0.1,0.3,0
			C42.8,6.4,42.9,6.3,43,6.2z M50.8,6.3C50.8,6.3,50.9,6.3,50.8,6.3c0-0.1,0-0.2-0.1-0.2c0,0-0.1,0.1-0.1,0.1
			C50.7,6.3,50.7,6.3,50.8,6.3z"/>
		<path class="st1" d="M328.1,38.3c0.2,1.4-0.6,2.8-0.4,4.4c0.1,0.7,0,1.4,0.4,2.1c0.6,1.1,0.4,2.4,0.9,3.5c0.3,0.7,0.5,1.2,1.5,1.3
			c2.2,0.2,2.2,0.3,2.3,2.5c0.1,0.9-0.4,1.7-0.4,2.5c0,0.3-0.3,0.6-0.6,0.6c-1.6-0.2-3.1,0.7-4.8,0.1c-0.7-0.3-1.4-0.6-1.9-1.2
			c-1-1.2-1.3-1.3-2.6-0.4c-0.6,0.4-1.6,0.2-1.7,0.4c-0.4,0.6-1,0.8-1.6,1c-0.3,0.1-0.7,0.1-1,0.1c-1.5,0.2-3-0.2-4.5-0.4
			c-1.6-0.2-2.7-1.2-3.3-2.9c-0.6-1.6-0.9-3.3-1.4-5c-0.8-3,0.5-5.2,2.4-7.3c1.2-1.3,2.5-2.4,4.1-3.2c0.4-0.2,0.7-0.3,1.2-0.3
			c0.7,0,1.4,0,2.1-0.1c0.6-0.1,1.6,0.6,1.9-0.6c0.3-1.6-0.3-3.2-1.5-3.5c-1.9-0.4-3.7,0.1-5.4,1c-0.1,0.1-0.2,0.3-0.3,0.3
			c-0.7,0.1-1.2,1-2,0.6c-0.7-0.4-0.3-1.1-0.4-1.7c-0.2-0.8-0.3-1.7-0.5-2.5c-0.3-1.8,0.7-3.3,2.5-3.7c1.2-0.3,2.4-0.6,3.6-0.7
			c1.7-0.2,3.4,0.4,5,1c0.4,0.2,0.8,0.4,1.2,0.5c1.7,0.3,2.8,1.4,3.3,2.9C327.2,32.4,328.1,35.2,328.1,38.3z M317.2,29.6
			c-0.1,0-0.2,0-0.2,0.1c-0.2,0-0.5,0-0.7,0c0-0.1,0-0.2,0-0.3c0-0.5,0.5-1.1,0.1-1.4c-0.4-0.3-0.7,0.5-1.2,0.6c0,0-0.1,0-0.1,0
			c-1,0.3,0.2,0.4,0.1,0.7l0,0c-0.2,0-0.3,0-0.4,0.2c-0.7-0.1-1,0.8-1.7,0.8c-0.6,0-0.7,0.4-0.7,1c0,0.3-0.1,0.6,0.3,0.8
			c0.5,0.2,1.1,0,1.2-0.3c0.5-0.9,1.3-0.9,2-1c0.6,0.1,1.3,0.5,1.7-0.4c0.3-0.1,0.5-0.3,0.5-0.7c0.3-0.1,0.5-0.3,0.6-0.6
			c0.6-0.4,0.1-0.5-0.2-0.7c0-0.4,0.7-0.7,0.3-1c-0.5-0.4-0.8,0.2-1,0.5c-0.1,0.1-0.1,0.4-0.1,0.6c-0.5,0.2-0.5,0.3-0.1,0.6
			C317.4,29.2,317.3,29.4,317.2,29.6z M313.8,47.9c0.7-0.5-0.2-0.9-0.1-1.5c0.1-0.2-0.4-0.1-0.4,0.1c0,0.9-0.5,1.8,0,2.7
			c-0.1,0.2-0.1,0.4-0.2,0.6c0,0.3,0,0.5,0.3,0.6c0,0.7-0.7,0.6-1,0.9c-0.4,0.3-0.6,0.8-0.4,1.2c0.3,0.5,0.8,0.6,1.3,0.4
			c0.4-0.2,0.8-0.4,0.9-0.9c0.1-0.4,0.3-0.5,0.6-0.5c-0.1,0.6,0.1,1,0.7,1.1c0.2,0,0.4,0.2,0.5-0.1c0-0.1,0-0.4,0-0.4
			c-0.8-0.4-0.7-0.5,0.1-0.5c0.2,0,0.5,0,0.7,0c0.3,0,0.6,0,0.7-0.4c0.1-0.5,0-0.8-0.6-0.8c-0.1-0.2-0.2-0.2-0.3-0.2
			c-0.1,0-0.2,0.1-0.1,0.2c0.1,0,0.3,0,0.4,0.1c-0.2,0.4-0.6,0.4-0.9,0.1c-0.3-0.2-0.6-0.1-0.9-0.1c0.2-0.5-0.3-0.6-0.5-0.9
			c0.1-0.3,0.1-0.5-0.2-0.7c-0.1-0.7-0.5-0.6-0.9-0.4C313.8,48.3,313.8,48.1,313.8,47.9L313.8,47.9z M314.9,42.5
			c0.4,0,0.8-0.2,1.2-0.4c-0.3,1.1-1.3,1.6-2.1,2.2c-0.3,0.2-0.6,0.3-0.5,0.6c0.1,0.4,0.4,0.2,0.7,0.1c0.6-0.3,0.7,0.1,0.6,0.6
			c0,0.2-0.4,0.4,0,0.7c0.1-1.2,0.8-1.9,1.4-2.8c0.3-0.4,0.2-0.9,0.1-1.4c0.1-0.2,0.3-0.4,0.4-0.6c0.1-0.3,0.2-0.7-0.1-0.8
			c-0.3-0.2-0.5,0.2-0.8,0.3c-0.5,0.3-0.6,0.9-1,1.3c-0.2,0.1-0.4,0.1-0.5,0.2c-0.2,0.1-0.3,0.3-0.2,0.5c0.2,0.3,0.5,0.1,0.6-0.1
			C314.7,42.9,314.8,42.7,314.9,42.5z M323.6,32.1c0.3-1.4-0.9-2.5-0.7-3.9c0.1-0.4-0.7-0.8-0.9-0.6c-0.6,0.5-1.2-0.1-1.7,0.1
			c-0.2,0.1-0.6-0.4-0.7,0.2c0,0.3,0.1,0.6,0.3,0.6c0.7,0.1,1.1,0.8,1.9,0.7c0.4-0.1,0.5,0.3,0.7,0.5c0.2,0.3,0,0.4-0.3,0.5
			c-0.4,0.1-0.4,0.2,0,0.4c0.5,0.2,0.8,0.6,0.8,1.1C323.1,32,323.4,32,323.6,32.1c-0.1,0.1-0.2,0.4-0.4,0.4
			c-0.5,0.3-1.3,0.2-1.1,1.1c0.2,0.9,0.8,0.3,1.3,0.3c0.3,0,0.6,0.2,0.7,0.5c0.2,0.4-0.3,0.5-0.5,0.6c-0.4,0.3-0.9,0.5-1.3,0.8
			c-0.2,0.1-0.3,0.4,0,0.4c0.9,0,1.4,1.1,2.3,0.7c0.2-0.1,0.7-0.1,0.7,0.3c0,0.4-0.4,0.3-0.7,0.3c-0.7,0.1-1.6-0.3-2,0.4
			c-0.6,1-1.5,1.3-2.5,1.5c-0.2,0-0.4,0.1-0.3,0.4c0,0.1,0.2,0.1,0.4,0.2c1.3,0.3,2.6-0.3,3.9-0.4c0.8-0.1,1.1-0.2,1.1,0.7
			c0,0.4,0.4,0.7,0.7,0.7c0.3,0,0.3-0.4,0.4-0.7c0.7-2.4,0-4.7-0.6-7c-0.1-0.2-0.3-0.6-0.5-0.5C324.3,33.3,324.2,32.2,323.6,32.1z
			 M321.7,44.8C321.7,44.8,321.7,44.8,321.7,44.8c-0.1-0.9,0-1.7-0.1-2.6c-0.2-1.1-1.2-1.5-2-0.8c-0.6,0.5-1.2,1-1.6,1.6
			c-1,1.2-1.8,2.6-1.7,4.3c0.1,0.9,0.4,1.6,1.2,1.9c1.7,0.6,4.5-1,4.2-2.9C321.6,45.9,321.7,45.3,321.7,44.8z M326,43
			c-0.1-0.6-0.8-1.1-1.3-1.4c-0.6-0.4-2.2,1.4-1.9,2.2c0.2,0.5,0.5,0.6,0.9,0.2c0.3-0.3,0.4-0.8,0.8-1.1c0.1-0.1,0.3-0.2,0.4-0.2
			c0.2,0.1,0.2,0.3,0.1,0.5c-0.1,0.1-0.1,0.3-0.2,0.4c-0.1,0.3-0.1,0.5,0.2,0.6c0.3,0.1,0.5,0,0.6-0.3C325.9,43.8,326,43.5,326,43z
			 M325.7,47.2c0.2,0.3-0.7,0.4-0.2,0.6c0.5,0.3,0.6-0.6,1.1-0.6c0.2,0,0.4-0.3,0.2-0.4c-0.6-0.4-0.4-0.9-0.2-1.5
			c0.1-0.3,0-0.5-0.4-0.5c-0.3,0-0.5,0.2-0.5,0.4c-0.1,0.4,0.1,0.9-0.5,1.1c-0.4,0.1-0.1,0.2,0.1,0.3
			C325.6,46.8,325.8,46.9,325.7,47.2z M324.6,45.2c0.1-0.3-0.2-0.3-0.4-0.3c-0.5,0-1,0-1.1,0.7c0,0.2,0.1,0.4,0.3,0.4
			C323.9,45.9,324.4,45.7,324.6,45.2z M324.5,47.1c0-0.4-0.2-0.4-0.4-0.3c-0.1,0-0.3,0.1-0.3,0.3c0,0.2,0.2,0.3,0.4,0.2
			C324.3,47.2,324.5,47.1,324.5,47.1z M321.3,30.4c0,0.1-0.1,0.2-0.1,0.2c0,0.1,0.1,0.1,0.2,0c0,0,0-0.1,0-0.1
			C321.4,30.4,321.3,30.4,321.3,30.4z M312.5,49.3L312.5,49.3l0-0.1L312.5,49.3z"/>
		<path class="st2" d="M24.5,29.6c1.3,0,2.6,0,4,0c0.4,0.8,0.1,1.7,0.6,2.5c0,1.4,0.1,2.8,0.1,4.2c-0.4,2.5,0.3,5,0.3,7.5
			c0,0.1,0.1,0.1,0.2,0.2c0,0.6,0,1.2,0,1.8c0,0.6,0,1.1,0,1.7c-0.1,4.1,0.5,8.1,0.4,12.2c0,0.9-0.1,1.8-0.7,2.5
			c0,0-0.1,0.1-0.1,0.1c-0.4,0-1-0.1-1.3,0.2c-1.5,1-2.8,0.6-4-0.4c0-0.2-0.1-0.4-0.1-0.5c0-0.2,0.1-0.5,0.1-0.7
			c-0.1-0.7,0.4-1.7-0.3-1.9c-0.7-0.2-0.9,1-1.3,1.6c-2.5,3-5.8,3.4-9.3,2.6c-2-0.4-3.3-2-4.3-3.6c-2-3.3-2.9-6.9-3.2-10.8
			c-0.2-2.7-0.5-5.4-0.2-8c0.4-3.2,0.2-6.5,0.2-9.7c0-1,0.3-1.8,0.7-2.6c0.1-0.3,0.4-0.6,0.6-0.6c1.2,0,2.4-0.1,3.5,0.5
			c0.9,0.5,1.2,1.2,1.3,2.2c0,1.5,0.4,2.9,0,4.4c0,0.2-0.1,0.4,0,0.6c0.9,2.5,0.3,5.1,0.3,7.7c0.1,3.1-0.1,6.3,0.8,9.3
			c0.5,1.8,2.5,3.4,4.5,3.5c1,0,1.9,0,2.9,0c0.7,0,1.4,0.3,1.8-0.6c0.5-0.1,1-0.1,1.3-0.6c0.6,0,0.6-0.5,0.6-0.9l0,0
			c0.7-0.3,0.6-0.9,0.6-1.4c0-1.6,0-3.1,0-4.7c0-0.7-0.1-1.3,0.4-1.9c0.7-0.9-0.8-0.8-0.7-1.7c0.2-1.1,0.1-2.2,0-3.3
			c0-0.5,0.2-1.1-0.3-1.6c0-2.8,0-5.7,0-8.5C24.3,30.4,24.5,30,24.5,29.6z M8,42.7C8.4,42.8,8.8,43,9.2,43c0.9,0,1.4-0.5,1.3-1.3
			c-0.1-0.6,0.6-1.8-0.9-1.7c0-0.2,0-0.6-0.4-0.3c-0.5,0.3-0.6,0.9-1.2,1.2c-0.8,0.3-0.5,0.8-0.3,1.3c0,0.1,0,0.2,0,0.4
			C7.7,42.6,7.8,42.7,8,42.7z M7.6,48.2c-0.7,0.3-0.7,0.8,0,0.9c0.8,0.1,1.6,0,2.4,0c0.3,0,0.4-0.3,0.4-0.6c0.6-1,0.2-2.1,0.2-3.2
			c0-0.7-0.6-0.6-0.9-0.2C9.1,46.2,8,46.9,7.6,48.2z M17.3,58.2c-0.6,0-1.4,0-2.1,0c-0.7,0-1.4,0-1.7-0.9c-0.1-0.5-0.6-0.6-1.1-0.6
			c-0.6,0-0.7-0.2-0.4-0.7c0.2-0.3,0.4-1.1,0.3-1.1c-1.2,0.1-1-0.8-1.3-1.4c-0.1-0.2-0.5-0.1-0.8,0c-1.9,0.8-2.1,1.5-1,3.3
			c0.1,0.2,0.2,0.4,0.2,0.6c0.2,0.8,0.8,1.2,1.5,1.6c0.6,0.3,1.7,0.4,1.9,0.8c0.5,1,1.3,0.9,2.1,1c1.2,0.2,2.5-0.7,3.7,0.3
			c0.2,0.2,0.7-0.1,1-0.2c1.4-0.4,1.9-1.9,3.2-2.4c0.2-0.1,0.3-0.3,0.2-0.5c-0.1-0.2-0.3-0.2-0.5-0.2c-0.3,0-0.5,0-0.7,0.1
			C20.3,58.4,18.8,58.2,17.3,58.2z M7.4,34.9c0,0.5,0,1,0,1.5c0,0.5-0.2,1.2,0.5,1.2c0.5,0,1.2-0.1,1.4-0.9c0.2-0.6,0-1.3,0.3-1.7
			c1.2-1.5-0.2-2.9,0.1-4.3c0-0.1-0.2-0.3-0.4-0.4c-0.5-0.3-1-0.6-1.6-0.2C7.2,30.4,7,31,7.1,31.6C7.4,32.7,7.4,33.8,7.4,34.9z
			 M27.9,33.8c0.4-1-0.6-1.8-1-2.7c-0.1-0.3-0.6-0.3-0.7,0c-0.5,1.1-0.9,2.5-0.5,3.5c0.4,0.9,0.5,1.5,0,2.2c-0.2,0.3-0.4,0.7-0.1,1
			c0.4,0.4,0.8,0,1-0.3C27.6,36.5,27.8,35.2,27.9,33.8z M27.6,43.3c-0.2-0.2,0.4-0.9-0.3-1c-0.4,0-0.8,0.5-1,1c0,0.1-0.1,0.3,0,0.4
			c0.3,1.1,0.2,2.1-0.3,3.2c-0.1,0.3-0.3,1,0.3,1.1c0.5,0.1,0.9-0.4,1.1-0.9c0.1-0.2,0.2-0.5,0.1-0.7C27.1,45.5,27.7,44.5,27.6,43.3
			z M26.9,58.9c0.8,0,1.3-0.4,1.3-1.1c0-0.5-0.2-0.8-0.7-0.7c-0.7,0.1-1,0.8-1.3,1.3C26,58.7,26.6,58.9,26.9,58.9z"/>
		<path class="st1" d="M367.4,50.2c0-2-0.1-4,0.3-6.1c0.4-2.1-0.2-4.1-0.4-6.2c-0.3-3.7-0.6-7.4-0.4-11.1c0.1-1.6,0.1-3.2-0.1-4.9
			c-0.2-1.8,0.4-3.6,0-5.3c-0.3-1.2-0.1-2.6-0.8-3.7c-0.2-0.4-0.2-0.9,0.3-1.2c0.4-0.2,0.6,0,0.9,0.4c0.6,0.8,1,0.7,1.8-0.2
			c0.2-0.2,0.4-0.2,0.7-0.2c0.5,0,1,0,1.5,0c1.8,0,1.8,0,1.9,1.8c0,0.2-0.1,0.5,0,0.6c0.9,1.5,0.3,3.3,0.6,4.8
			c0.3,1.5,0.1,2.8,0,4.2c-0.1,1.2,0.6,1.8,1.7,1.4c0.8-0.3,1.7-0.4,2.5-0.7c2.5-1,5.6,0.2,7.3,2.4c2.4,3,3.2,6.5,3.2,10.2
			c0,1.3,0.1,2.5,0.3,3.8c0.2,1.6,0.2,3.2-0.1,4.9c-0.3,2-0.3,4,0.1,5.9c0.3,1.5,0.2,3,0.2,4.6c-0.1,1.1-0.5,1.3-1.4,1
			c-1.2-0.4-2.4-0.2-3.6-0.1c-1.7,0.2-2-0.2-1.8-1.8c0.6-3.7,0.9-7.5,0.8-11.2c-0.1-2.6-0.1-5.3-0.8-7.9c-0.8-3.4-4.4-4.2-7-2.2
			c-1.7,1.3-1.6,3.2-2.2,4.8c-0.7,2.1-0.2,4.3,0.2,6.5c0.1,0.6,0.2,1.2,0.1,1.8c-0.1,1,0,2,0.2,3.1c0.3,2,0.3,4.1-0.2,6.2
			c0,0.2-0.3,0.5-0.3,0.4c-1-0.8-2.2,0.8-3.2-0.3c-0.1-0.2-0.6-0.1-0.9,0c-1.3,0.1-1.4,0-1.4-1.4C367.3,53.1,367.4,51.7,367.4,50.2z
			 M369.9,13.2c0-0.1,0-0.2-0.1-0.3c0,0.1-0.1,0.1-0.1,0.2c-0.5,0-1,0-1.5,0c-0.3,0-0.6,0.1-0.5,0.4c0,0.4,0.1,0.9,0.4,1.2
			c0.2,0.2,0.6,0,0.8-0.2c0.3-0.5,0.8-0.8,1.1-1.2c0.1-0.1,0.1-0.1,0.2-0.2C370.1,13.2,370,13.2,369.9,13.2L369.9,13.2z M371.5,44.9
			L371.5,44.9c-0.1-0.2-0.2-0.4-0.3-0.7c0.2-0.2,0.2-0.5,0.2-0.7c0.2-0.5,0.2-1,0.1-1.6c0-0.2-0.1-0.2-0.2-0.1
			c-0.1,0.1,0,0.2-0.1,0.3c-0.4,0-0.6,0.2-0.9,0.3c-0.1-0.2-0.3-0.4-0.5-0.2c-0.3,0.2-0.1,0.6-0.1,0.9l0,0c-0.2,0-0.3,0.1-0.3,0.3
			c-0.2,0.5-0.3,1-0.5,1.5c-0.1,0.6,0.1,1,0.7,1c0,0.1,0.1,0.2,0.1,0.3c0,0.2,0,0.3,0.1,0.5c-0.4,0.1-0.5,0.3-0.4,0.7
			c-0.2,0.2-0.5,0.4-0.5,0.5c0,1.7-0.1,3.3,0,5c0,0.6,0.3,0.3,0.6,0.1c0.8-0.7,1.3-1.6,2-2.2c0.2-0.2,0.1-1.1,0.2-1.6
			c0.1-0.7-0.4-1.4-0.1-2.2c-0.2-0.1-0.5-0.1-0.7-0.2c0.1-0.6,0.8-0.9,0.7-1.5C371.8,45,371.8,44.9,371.5,44.9z M386.5,42.4
			c0.2-0.1,0.6,0.2,0.7-0.2c0-0.1-0.2-0.2-0.3-0.1c0-0.3,0-0.6,0-1c0.2-0.4-0.4-0.3-0.4-0.6c0.1-0.1,0.3-0.2,0.2-0.3
			c0,0-0.1-0.1-0.2-0.1c0,0.1-0.1,0.3-0.1,0.4c-0.2,0-0.4,0-0.6,0c-0.2-1.2,0.9-2.2,0.6-3.4c1.1-2.1,0.5-4.2-0.1-6.3
			c-0.5-1.8-0.7-1.9-2-0.5c-0.4-0.3-0.7-0.6-0.5-1.1c0.2-0.4,0.3-0.8,0-1.1c-0.4-0.3-0.9-0.2-1.3,0c-0.4,0.3-0.7,0.8-1.3,0.7
			c0-0.4-0.1-0.9-0.1-1.3c0.5-0.4,1-0.4,1.5-0.6c0.3-0.1,0.5-0.2,0.6-0.6c0-0.4-0.3-0.4-0.6-0.6c-1-0.5-1.5,0.4-2.2,0.8
			c-0.3-0.1-0.4-0.4-0.4-0.7c0-0.1,0.1-0.1,0.1-0.2c-0.1,0-0.1,0.1-0.2,0.1c-0.4,0-0.9,0-1.3,0c0.1-0.1,0.1-0.2,0.2-0.3
			c0-0.2-0.2-0.3-0.4-0.2c-0.6,0-1.1,0.1-1.7,0.2c-1.4,0.2-2.7,0.7-3.4,2.1c-0.2,0.5,0.1,0.7,0.6,0.7c0.3,0,0.7,0,1,0
			c-0.9,0.8-1.9,1.5-2.4,2.6c-0.1,0.2-0.3,0.3-0.1,0.5c0.2,0.2,0.3,0,0.5-0.1c1.4-0.5,2.5-1.5,3.6-2.4c0,0.2,0.2,0.4,0.4,0.5
			c0.5,0.9,1.4,1.2,2.2,0.5c0.3-0.3,0.6-0.5,1.1-0.6c0,0.1,0,0.3,0.1,0.4c-0.2,0.9,0.4,1.4,1.1,1.4c0.7,0,0.9,0.3,1.1,0.7
			c0.4,1.1,1,2.3,1,3.4c0,0.8,0.3,0.9,0.7,1.1c0.1,0.4-0.3,0.6-0.4,1c-0.1,2.2-0.2,2.2,1.6,2.9c-0.1,0.2-0.2,0.4-0.3,0.7l0,0
			c-0.1,0-0.3,0-0.4,0c-0.1,0-0.2,0-0.3-0.1c0-0.1,0-0.2-0.1-0.2c-0.1,0-0.1,0.2,0,0.3c0,0.3,0,0.6-0.1,0.9
			c-0.5,1.5-0.2,3.1-0.3,4.6c0,0.1,0,0.3,0.1,0.4c0.1,0.1,0.3,0,0.4-0.1c0.4-1,1.8-1.7,1-3.1c0.1-0.3,0-0.7-0.1-1l0,0
			C386,43.1,386.4,42.9,386.5,42.4L386.5,42.4z M370.9,14.7c0.7-0.2,1.3-1,1-1.3c-0.4-0.4-1,0.2-1.4,0.6c-0.2,0.1-0.2,0.2,0,0.4
			c0,0.1,0,0.2,0.1,0.3C370.7,14.9,370.8,14.9,370.9,14.7z M384.3,52.4c1.2,0.4,1.3,0.3,1.2-0.9c0.1-0.4,0.8-0.3,0.6-0.9
			c-0.1-0.3-0.4-0.3-0.6-0.3C384.6,50.4,384,51.4,384.3,52.4z M368.8,15.6c-0.7,0.2-0.7,0.8-0.6,1.3c0.1,0.5,0.4,0.5,0.8,0.4
			c0.2,0,0.3,0.1,0.5,0.1c0,0.3-0.1,0.6-0.4,0.8c-1,0.5-0.8,1.5-0.8,2.4c0,0.6,0.6,0.9,0.5,1.4c-0.1,0.6-0.4,1.4,0.1,1.6
			c0.6,0.3,0.8-0.7,1.3-1c0.2-0.1,0.4-0.3,0.6-0.5c0.6-0.4,0.4-0.8,0.1-1.2c-0.8-1.2-0.8-1.4,0.4-2.1c1-0.6,0.9-1.5,1.1-2.3
			c0.1-0.3,0-0.8-0.3-1c-0.4-0.2-0.7,0.1-1,0.5c-0.1,0.1-0.2,0.2-0.3,0.3c-0.3-0.1-0.3-0.6-0.7-0.7c-0.3,0-0.6,0-0.9,0
			c0-0.1-0.1-0.1-0.1-0.2C368.9,15.5,368.9,15.5,368.8,15.6z M371.9,24.4c0.3-0.2,0.2-0.2-0.1-0.3c-0.1,0-0.2,0-0.3-0.1
			c0-0.2,0-0.3,0-0.5c0.7-0.2,1.2-0.8,0.7-1.4c-0.3-0.4-0.8,0.3-1.3,0.4c0,0-0.1,0-0.1,0.1c-1,1-1.2,2.6-2.5,3.4
			c-0.1,0.1-0.1,0.3-0.1,0.4c-0.1,2-0.1,4,0.1,5.9c0.1,0.8,0.3,1.1,1,0.4c0.4-0.4,0.9-0.4,1.1,0.1c0.3,0.5-0.2,0.7-0.5,0.9
			c-0.4,0.3-1.2,0.3-1.2,1c-0.1,1.4,0,2.8,0,4.3c0,0.4,0.3,0.5,0.6,0.2c0.5-0.5,0.7-1.3,1.5-1.6c0.4-0.2,0.3-0.8-0.1-1
			c-0.6-0.3-0.3-0.5-0.1-0.9c0.5-0.9,0.9-1.7,1.7-2.3c0.3-0.2,0.3-0.6,0-0.8c-0.9-0.4-0.7-0.9-0.4-1.6c0.2-0.4,0-1,0-1.5
			c0-0.6,0.1-1.1-0.8-1.1c-0.4,0-0.8-0.4-0.6-0.7C371.5,26.9,370.9,25.4,371.9,24.4z M380.9,31.5L380.9,31.5L380.9,31.5L380.9,31.5z
			"/>
		<path class="st0" d="M183.9,33.4c0.3,5.5-1.1,10.8-3.6,15.6c-2,3.8-4.8,7.1-8.5,9.6c-2.6,1.8-5.5,3.1-8.5,3.4
			c-3.5,0.4-7.1,0.4-10.5-1.3c-1.8-0.9-3.6-1.8-5.2-2.9c-1.4-1-2.7-2.3-3.8-3.6c-2.3-2.7-4.1-5.7-5.2-9.1c-1.8-5.2-2.6-10.5-1.8-16
			c0.3-2.3,0.6-4.7,1.5-6.9c0.7-1.9,1.6-3.7,2.5-5.5c1.4-2.4,3.1-4.6,5.1-6.4c0.9-0.8,1.8-1.7,3-2.3c1.2-0.6,2.3-1.7,3.7-1.9
			c1.7-0.3,3.2-1.5,5-1.5c1.8-0.1,3.6-0.2,5.3,0c2.9,0.3,5.5,1.5,8,2.9c1.8,1,3.4,2.3,4.8,3.8c1.4,1.4,2.5,2.9,3.6,4.5
			c2.7,4.2,4.1,8.8,4.8,13.6C184.1,30.8,183.9,32.1,183.9,33.4z M182.1,33.9c0.1-6-1.1-11.1-4-15.8c-1.2-2-2.5-3.9-4.2-5.5
			c-2-1.8-4.1-3.5-6.7-4.4c-1.9-0.7-3.9-1.3-6-1.4c-1.5-0.1-3-0.2-4.5,0.3c-0.7,0.2-1.2,0.8-1.9,0.9c-2.2,0.1-3.9,1.2-5.6,2.4
			c-2.9,2.1-5.1,4.7-7,7.8c-2.5,4.2-3.6,8.8-3.9,13.6c-0.3,4.8,0.5,9.5,2.4,14c1,2.4,2.3,4.7,4,6.7c1.5,1.8,3.4,3.4,5.5,4.7
			c2,1.3,4.2,2.2,6.5,2.6c4.9,1,9.4,0,13.7-2.7c2-1.3,3.7-2.9,5.3-4.6c2.3-2.5,3.7-5.6,4.8-8.7C181.7,40.5,182.3,37,182.1,33.9z"/>
		<path class="st1" d="M259.4,25.5c0-2.6,0-5.3,0-7.9c0-1.5-0.4-2.9-0.7-4.3c-0.4-1.4-0.2-1.6,1.2-1.4c1.4,0.2,2.7-0.2,4.1-0.1
			c1.8,0.1,1.7,0,1.9,1.9c0.3,2.1,0.5,4.2,0.7,6.3c0.1,1.2-0.2,2.3-0.1,3.5c0.1,1.1,0.2,1.3,1.2,1.1c1-0.2,2-0.4,3-0.7
			c2.1-0.7,5.4,0.3,7.2,2.6c2.4,3.1,3,6.6,3.1,10.4c0,1.3,0.2,2.5,0.3,3.8c0.2,1.7,0.1,3.3-0.2,5c-0.3,1.8-0.2,3.6,0.1,5.5
			c0.3,1.6,0.2,3.1,0.1,4.7c0,0.9-0.5,1.1-1.4,0.9c-1.2-0.4-2.5-0.3-3.8-0.1c-0.6,0.1-1.2,0.1-1.5-0.4c-0.4-0.5-0.4-1.2,0-1.7
			c0.3-0.4,0.1-0.7,0.2-1.1c0.6-2.4-0.1-4.9,0.7-7.3c0.1-0.4,0.2-0.9,0-1.2c-0.7-1.7-0.2-3.5-0.4-5.2c0-0.3-0.1-0.7,0.2-1
			c0.1-0.1,0.3-0.5,0.2-0.5c-1.2-1.5-0.8-3.7-2.3-5c-0.1-0.1-0.2-0.2-0.3-0.3c-2.1-1.5-6.1,0-6.8,2.5c-0.9,3.2-1.1,6.3-0.5,9.6
			c0.6,3.1,0.6,6.4,0.4,9.6c0,0.4-0.2,0.8-0.3,1.2c-0.1,0.4-0.2,0.7-0.7,0.4c-0.3-0.2-0.5-0.2-0.8,0.1c-0.5,0.4-1.1,0.3-1.5,0
			c-0.5-0.4-1.1-0.4-1.6-0.2c-1,0.3-1.3-0.3-1.3-1c0.3-3.4-0.4-6.8,0.2-10.2c0.2-1.1,0.1-2.1,0-3.2c-0.3-2.7-0.7-5.3-0.8-8
			C259.3,30.9,259.4,28.2,259.4,25.5z M264.4,54.6c0-0.2,0.1-0.5,0-0.7c-0.1-0.4-0.2-0.5-0.5-0.2c-0.4,0-0.9,0-1-0.5
			c0.6,0.3,1.1-0.2,1.5-0.5c0.4-0.3,0.4-0.9-0.1-0.9c-1.2-0.1-1.1-0.2-0.2-0.8c0.2-0.1,0.3-0.3,0.2-0.6c-0.1-0.8,0.3-1.7-0.4-2.5
			c1.1-2-0.4-0.5-0.8-0.6c-0.1,0-0.3,0.2-0.4,0.1c-0.5-0.2-0.8-0.2-1.1,0.3c-0.3,0.4-0.5,0.8-0.5,1.4c0.1,1.1,0.1,2.1,0.1,3.2
			c0,0.5,0,0.9,0.4,1.3c-0.1,0.5-0.4,1.1,0.1,1.4c0.6,0.3,1.3,0.4,1.9-0.2C263.8,54.9,264.1,54.8,264.4,54.6c0,0.1,0.1,0.1,0.2,0.1
			C264.5,54.7,264.5,54.6,264.4,54.6z M277,49.8c0.5-0.2,1-0.5,1.4-0.7c1-0.5,1-0.7,0.3-1.5c0.8-0.1,0.7-0.7,0.7-1.2
			c0.2-0.5,0.5-1.1-0.4-1.3c-0.1,0-0.3,0-0.4,0c0.3-0.9,0.6-1.7,1.3-2.4c0,0,0-0.2,0-0.3c0-0.3-0.2-0.3-0.4-0.4c0-0.3,0-0.5,0-0.8
			c0.1-0.6-0.7-0.3-0.8-0.7c0.7-0.1,1.2-0.3,0.9-1.3c-0.2-0.9-0.2-1.8-0.1-2.8c0.2-1.9,0.2-3.8-0.6-5.7c-0.7-1.7-0.7-1.7-1.9-0.6
			c-0.3-0.3,0.6-0.9-0.3-1c0-0.1,0-0.2,0-0.3c0.4-0.1,0.8-0.1,0.9-0.7c0-0.4-0.1-0.8-0.5-0.9c-0.8-0.1-1.3-0.4-1.2-1.3
			c0-0.2-0.4-0.2-0.7-0.2c-0.7,0-1.4,0-2.1,0c-0.5-0.1-1-0.2-1.4,0.3c-0.2,0.3-0.6,0.2-1,0.2c0-0.1,0.1-0.3,0.1-0.4
			c0.1-0.2,0.6-0.2,0.4-0.5c-0.1-0.3-0.4-0.2-0.7-0.2c-1,0-2,0.3-3,0.6c-0.7,0.3-1.3,0.9-1.6,1.7c-0.1,0.4,0,0.6,0.4,0.6
			c0.3,0.1,0.6,0.1,0.7,0.4c-0.8,0.5-1.3,1.2-1.9,1.9c-0.1,0.2-0.4,0.7-0.6,0.1c-0.2-0.8,0.2-1.9-0.9-2.4c-0.1,0,0-0.4,0-0.6
			c-0.2-1.3,0.1-2.5,0.6-3.6c0-0.2,0-0.5,0-0.7c0.2-0.3,0.4-0.7,0.5-1c0.2-0.4,0-0.7-0.5-0.6c0-0.1-0.1-0.2-0.2-0.2
			c0-0.3,0.1-0.6-0.1-0.8c0-0.1,0-0.2,0-0.3c0.4-0.5,1.4-0.9,0.6-1.8c0-0.3,0-0.6,0-1c-0.2-0.7,0.4-1.4,0.1-2.2
			c0-0.2-0.2-0.3-0.3-0.2c-0.7,0-0.5,0.9-1.1,1c-0.2-0.1-0.4-0.3-0.6-0.4c-0.2-0.3-0.4-0.3-0.7-0.3c-0.2-0.3-0.2-0.2-0.3,0.1
			c-0.6-0.1-0.9,0.3-1,0.9c-0.2,0.1-0.3,0.2,0,0.3c0,0.1,0,0.2,0,0.3c-0.1,0.7,0.2,1,0.9,1c-0.7,0.6-0.9,1.4-0.8,2.3
			c-0.1,0.5-0.1,1,0.6,1c-0.8,0.6-0.5,1.5-0.4,2.3c0.1,0.1,0.1,0.2,0.2,0.3c0.1-0.1,0.2-0.2,0.2-0.3c0.2-0.1,0.4-0.1,0.6-0.2
			c0,0.6,0,1.2,0,1.8c-0.9,0.2-1.2,0.9-1.1,1.7c0,1.7,0,3.4,0.1,5.2c0,1.1,0.1,1.2,1.2,0.6c0.3-0.1,0.5-0.3,0.8-0.1
			c0.5,0.3,0.9,0,1.3-0.2c1.6-1,3.5-1.5,4.6-3.2c0.1-0.1,0.2-0.2,0.4-0.2c0.3,0,0.2,0.3,0.2,0.4c0.2,1.2,0.4,1.3,1.5,1.1
			c0.1,0,0.3,0,0.4-0.1c0.6-0.2,1.2-0.9,1.8-0.6c0.4,0.2,0.1,1.2,0.5,1.7c0.7,0.4,1.4,0.7,1.5,1.7c0.1,0.8,0.6,0.2,0.9,0.2
			c0,0.5,0,1.1,0.4,1.3c1.1,0.5,0.6,1.3,0.4,2c-0.1,0.3-0.1,0.6-0.2,0.9c-0.3,1.2,0.1,2.4,0.1,3.6c0,1.2-0.3,2.5-0.3,3.8
			c0,0.7,0,1.3,0,2c0,0.5,0.4,0.5,0.7,0.4c0.1,0.4,0.4,0.7,0.3,1.1c-0.3,0.4-0.6,0.8-0.9,1.3c-0.5,0.4-0.3,0.9-0.2,1.3
			c0,0.3,0,0.5-0.1,0.8c-0.1,0.4-0.2,0.9,0.4,0.8c0.9-0.2,0.7,0.2,0.5,0.7c-0.1,0.3-0.3,0.7-0.3,1c0,0.2-0.3,0.4,0,0.5
			c0.3,0.1,0.5,0,0.6-0.3c0.1-0.6,0.2-1,0.9-0.7c0.3,0.1,0.3-0.2,0.3-0.4c0-0.4,0.2-0.7,0.4-1.1c0.3-0.4,0.4-1-0.1-1.4
			c0-0.2,0-0.4,0-0.6c0.2-0.1,0.5-0.3,0.2-0.5c-0.4-0.2-0.6,0-0.8,0.3c-0.3,0.1-0.5,0.1-0.8,0.2C277.2,50.4,276.9,50.3,277,49.8z
			 M263.2,44.8c0.2,0.6-0.2,0.9-0.4,1.3c-0.1,0.2-0.1,0.4,0.2,0.4c0.5-0.1,1-0.3,1.1-1C264.1,44.8,263.5,45,263.2,44.8
			c-0.1-0.3,1.1-0.9-0.3-0.9c-0.3,0-0.7-0.4-0.9,0.2c-0.2,0.5-0.6,1.1-0.2,1.5c0.3,0.3,0.5-0.6,0.9-0.6
			C262.9,45,263.1,44.9,263.2,44.8z M264,34.6c0.1-0.1,0.1-0.3,0.2-0.4c0.1-0.2,0.5-0.4,0.4-0.6c-0.1-0.2-0.4-0.1-0.7,0
			c-0.5,0.3-1,0.5-1.5,0.6c-0.8,0.1-1.1,0.6-1.1,1.4c-0.1,1.1,0.1,2.1,0.1,3.2c0,0.2-0.1,0.6,0.2,0.6c0.3,0.1,0.4-0.2,0.6-0.4
			c0.4-0.4,0.7-1,1.3-1.2c0.3-0.1,0.3-0.5,0.2-0.8C263.8,36.2,264.6,35.5,264,34.6z M280,54.1c0-0.2,0-0.6-0.3-0.5
			c-0.5,0.1-0.3,0.8-0.8,0.9c0.1,0.2,0.3,0.4,0.6,0.4C280.1,54.9,279.9,54.5,280,54.1z M263.1,43c0.3-0.1,0.6-0.2,0.6-0.6
			c0-0.2-0.1-0.3-0.2-0.3c-0.3,0.1-0.6,0.3-0.7,0.7C262.8,42.9,263,42.9,263.1,43z"/>
		<path class="st1" d="M358.7,46.7c0,0.3,0,0.5,0,0.8c0.1,1.4,0.5,1.6,1.8,1.2c1.1-0.4,1.3-0.3,1.8,0.8c0.8,1.7,0.4,3.4,0.1,5.1
			c-0.1,0.5-0.5,0.8-1,0.7c-1.5,0-3.1,0.1-4.6-0.1c-2.8-0.4-4.8-2.1-5.7-4.8c-0.5-1.4-0.8-2.9-1-4.4c-0.3-1.9,0.1-3.8,0.1-5.8
			c0-2.5-0.1-5-0.3-7.5c0-0.3,0-0.6-0.3-0.8c-0.4-0.4-0.8-1.2-1.3,0c-0.1,0.3-0.3,0.5-0.7,0.3c-0.3-0.2-0.6-0.4-0.5-0.7
			c0.6-1.5-0.2-3-0.1-4.5c0.1-1.7,0.1-1.8,1.8-1.9c1.7,0,1.7,0,1.7-1.8c0-1.2,0-2.3,0-3.5c0-1.2,0.2-1.4,1.4-1.4c0.6,0,1.1,0,1.7,0
			c0.8,0,1.6,0.2,2.3-0.5c0.2-0.2,0.5-0.1,0.7,0c0.1,0.4,0.3,0.5,0.7,0.4c0.1,0.1,0.2,0.2,0.3,0.3c0.1,0.6-0.3,1.3,0.3,1.9
			c0,0.5,0,0.9,0.1,1.4c-0.2,0.8-0.1,1.5-0.1,2.3c0,0.6,0.2,0.9,0.9,0.9c1.4,0,2.8,0,4.3,0c0,0.9,0,1.8,0.1,2.7
			c-0.5,0.8-0.5,1.6,0,2.4c0,0.3-0.1,0.6-0.1,0.9c-0.4,0-0.6,0.3-0.5,0.7l0,0c-0.5-0.1-1.1,0.1-1.3-0.7c-0.1-0.3-0.4-0.4-0.6-0.2
			c-0.7,0.3-1.4,0.2-2,0.2c-0.4,0-0.7,0.2-0.7,0.6c-0.5,0.5-0.5,1.2-0.6,1.8c-0.6,1.3-0.6,2.7,0,4c0.1,0.5,0.3,1,0.2,1.5
			c-0.3,0.3-0.3,0.6,0.1,0.9c0,0.3,0,0.6,0.1,0.8c0,0.5-0.3,1,0.3,1.3c0,0.3,0,0.5,0.1,0.8C357.9,44.2,358.3,45.4,358.7,46.7z
			 M352.9,33.6c0,0.4,0,0.8-0.1,1.2c-0.3,0.2-0.2,0.6-0.7,0.7c-0.6,0-0.5,0.5-0.4,0.9c-0.1,0.4,0,0.6,0.4,0.7
			c-0.1,0.3-0.4,0.6-0.4,0.9c-0.1,0.4,0,1,0.6,0.3c0.2-0.2,0.5-0.2,0.7,0c0.3,0.3,0,0.5-0.1,0.8c-0.1,0.1-0.1,0.3-0.1,0.4l0,0
			c-0.9,0.2-1.5,0.7-1.1,1.6c0.4,0.7,1,0,1.6-0.1c0.7,0.7,1.4,0.3,2.1-0.1c0.1,0,0.2,0,0.4,0.1c0.2,0.1,0.4,0,0.4-0.2
			c0.1-0.9-0.4-0.9-1-0.6c-0.4-0.2-0.9-0.3-1.1-0.8c0.8-0.1,0.9-1,1.7-1.1c0.2,0,0.2-0.4,0.1-0.5c-0.2-0.6-1.1-0.4-1.2-1.2
			c0-0.1-0.5,0-0.8,0.1c0-0.2-0.1-0.4-0.1-0.7c0.3-0.8,1-1.1,1.6-1.5c0.2,0,0.4,0,0.5-0.3c0-0.2-0.1-0.3-0.4-0.3c-0.3,0-0.6,0-0.9,0
			c0.1-0.3,0.3-0.6,0.1-0.9c0.5,0.1,1,0.2,1.2-0.5c0.1-0.1,0.1-0.3-0.1-0.3c-0.5-0.1-0.8,0.3-1.1,0.7c0,0,0,0.1-0.1,0.1
			c-0.1,0-0.2,0-0.3,0c0-0.1-0.1-0.4-0.1-0.4c-0.3,0-0.4,0.2-0.4,0.5c-0.1,0-0.1,0.1-0.2,0.1c-0.4-0.2-0.7-0.1-0.9,0.2
			C352.6,33.2,352.7,33.4,352.9,33.6z M357.2,27.8c0.1-0.2,0.2-0.4,0.3-0.6c-0.4-1.4-0.4-1.4-1.4-0.6c-0.1,0.1-0.4,0.1-0.6,0.2
			c-0.2-0.1-0.5-0.1-0.7-0.2c0-0.2,0.1-0.3,0.1-0.5c1.1-0.1,1.5-0.8,1.4-1.8c0.4-0.4,0.3-0.7-0.3-0.6c-0.5,0.1-1,0.5-1.6,0.5
			c-0.1,0-0.2,0-0.3,0c0-0.8-0.5-0.6-0.9-0.6c-0.6,0-1,0.3-0.9,0.9c-0.5,0.5-0.1,0.6,0.3,0.6c0.7-0.1,1,0.2,1,0.9
			c-0.2,0.3-0.5,0.5-0.6,0.8c-0.2,0.3,0.1,0.4,0.3,0.5c0,0.2,0,0.3,0,0.5c0,0.4,0,0.8,0,1.2c-0.8,0-1.6,0.5-2.4,0.4
			c0-0.2,0-0.5-0.1-0.7c0.2-0.3,0.4-0.6,0.6-0.9c0.4-0.2,0.9-0.4,0.7-0.9c-0.2-0.5-0.7-0.1-1.1,0c-0.6-0.8-1.7-1.1-2.2-0.5
			c-0.6,0.7-0.3,3,0.4,3.8c0.6,0,0.9,1,1.7,0.6c0.2,0.1,0.3,0.3,0.5,0.4c0,0.2,0,0.5,0.3,0.5c0.3,0,0.3-0.3,0.3-0.5
			c1.2-0.4,2.4-0.9,3.1-2.1l0,0c0.4,0,0.8,0,1.2,0c0.3,0,0.5,0,0.6-0.3C357.2,28.4,357.7,28.3,357.2,27.8z M353.8,44.2
			c0.8,0.2,1.5-0.1,2.2-0.4c0.7-0.2,1-1.1,0.6-1.8c-0.1-0.1-0.1-0.4-0.3-0.1C355.7,43,354.3,43,353.8,44.2c-0.3,0-0.6,0.1-0.7,0.4
			c0,0,0.1,0.1,0.2,0.1C353.8,44.8,353.9,44.6,353.8,44.2z M354.9,42.2c-0.8-0.1-1.4,0.3-2.1,0.4c-0.4,0.1-0.8,0.5-0.9,0.9
			c-0.1,0.3-0.2,0.6,0.1,0.8c0.2,0.2,0.5-0.1,0.7-0.2C353.3,43.5,354.1,42.9,354.9,42.2z"/>
		<path class="st3" d="M323.8,64.1c22.8,0,45.7,0,68.5,0c0.5,0,1,0,1.5,0c0.3,0,0.8-0.1,0.9,0.4c0.1,0.4,0.2,0.9-0.2,1.1
			c-0.5,0.4-1,0.9-1.8,0.9c-12.9,0-25.7,0-38.6,0c-0.8,0-1.3-0.9-1.9-0.5c-0.7,0.3-1.2,0.5-2,0.5c-2,0-4,0-5.9,0
			c-29.5,0-59.1,0-88.6,0c-0.8,0-1.5-0.1-2.3-0.5c-0.6-0.4-0.5-0.8-0.5-1.3c0.1-0.7,0.6-0.5,1-0.6c0.4,0,0.8,0,1.2,0
			C278,64.1,300.9,64.1,323.8,64.1z M323.9,64.7c-22.9,0-45.8,0-68.7,0c-0.6,0-1.5-0.5-1.6,0.4c0,0.4,1.1,0.2,1.6,0.2
			c45.7,0,91.4,0,137,0c0.6,0,1.5,0.5,1.6-0.4c0-0.4-1.1-0.2-1.6-0.2C369.5,64.7,346.7,64.7,323.9,64.7z"/>
		<path class="st1" d="M296.6,52.6c0,0.2-0.1,0.3-0.1,0.5c-0.2,0-0.3,0-0.5,0c0-0.1,0.1-0.2,0-0.3c0-0.4,0-0.9,0-1.3
			c0.9-0.5,1.5-1.3,2.4-1.7c0.1-0.1,0.2-0.2,0.1-0.3c-0.1-0.1-0.3-0.2-0.4-0.1c-0.9,0.5-2.2,0.5-2.5,1.8c-0.2,0-0.4-0.1-0.6-0.1
			c0-0.2,0-0.4,0-0.6c0.2-0.1,0.4-0.2,0.3-0.4c-0.1-0.2-0.3-0.2-0.5-0.2c0-0.1-0.1-0.2-0.1-0.3c-0.1-0.5,0.9-0.5,0.6-1
			c-0.4-0.7-0.9,0.5-1.4,0.1c0-0.6,0-1-0.8-0.7c-0.8,0.3-1.1,0-1-0.9c0.2-1-0.2-1.3-1.2-1.1c-0.2,0-0.4,0.5-0.6,0.3
			c-0.2-0.2-0.1-0.6-0.1-0.9c0.1-0.4,0.4-0.5,0.8-0.6c0.4-0.1,0.4-0.4,0.4-0.7c0-0.4-0.2-0.7-0.6-0.8c-0.6-0.1-1.2-0.2-1.7,0.3
			c-0.3,0.3-0.6,0.5-1,0.5c-0.8,0.1-0.9,0.6-0.8,1.3c-0.8,1.4,0.1,2.7,0.5,3.9c0.1,0.4,0.5,0.5,1,0.6c0.4,0.1,0.8-0.4,1.3-0.1
			c0,0.1,0,0.2,0,0.4c-0.2,0.1-0.4,0.2-0.7,0.3c-0.2,0-0.3,0.1-0.2,0.3c0,0.3,0.2,0.6,0.5,0.7c1.3,0.3,2.2,1.3,3.4,1.7
			c0.1,0.2,0.2,0.2,0.4,0.2c0.2,0,0.4,0,0.5,0c0.1,0,0.2,0.1,0.3,0.1c0.2,0.3,0.5,0.3,0.7,0c0.3,0,0.6-0.1,0.9-0.1
			c0.1,0,0.3,0.1,0.4,0.1c1.6,0.5,3.2,0.3,4.8,0.1c0.7-0.1,1.1-0.8,1-1.6c0.4-0.3-0.1-0.4-0.1-0.7c0.1-0.1,0.1-0.1,0.2-0.2
			c0.4,0,0.5-0.3,0.5-0.7c0.9,0.1,0.5,0.7,0.5,1.2c-0.7,0.4-0.5,1.1-0.7,1.7c0,0,0.2,0.1,0.2,0.1c0.6-0.3,0.8-0.8,0.9-1.4
			c0.2-0.3,0.5-0.6,0.9-0.7c0.1,0.4,0.3,0.6,0.6,0.7c0,0.3,0.5,0.6,0.1,0.9c-1,0.9-1.9,2-3.3,2.2c-3.1,0.4-6.2,0.3-9.2-0.6
			c-0.4-0.1-0.8-0.2-1-0.6c-0.2-0.4-0.7-0.6-1.1-0.8c-2.2-0.6-3.2-2.2-3.8-4.3c-0.3-1.1-0.6-2.2-0.9-3.2c-0.7-1.9-0.6-3.9-0.5-5.9
			c0.2-3,1-5.9,2.7-8.4c0.7-1.1,1.3-2.4,2.8-2.7c1.1-1.7,3.3-1.2,4.7-2.3c0.2-0.2,0.6-0.1,0.9-0.1c2.4,0.7,4.9,1.4,6.9,3
			c1.2,0.9,1.7,2.4,2.1,3.8c0.5,1.6,0.6,3.3,0.8,4.9c0.2,1-0.2,2-0.5,3c-0.2,0.6-0.6,1.1-1.4,1.2c-2.1,0.3-4.1,0.6-6.2,0.8
			c-1.7,0.1-3.3,0.3-5,0.3c-0.8,0-1,0.5-0.7,1.1c0.7,1.7,1.8,2.8,3.6,3.4c1.3,0.5,2.7,0.3,4.1,0.3c0.3,0,0.8-0.1,1,0.2
			c0.1,0.2,0.7,0.7,0,0.8c-1.3,0.1-2,0.8-2.6,1.8c-0.1,0.1-0.4,0.1-0.6,0.2c-0.1,0-0.3,0-0.4,0.1c-0.1,0.2,0,0.3,0.2,0.4
			c0.4,0,0.7-0.1,1.1-0.1c0.1,0.1,0.2,0.2,0.3,0.3c-0.6,1.3-0.8,1.3-2.1,0.8c0-0.4,0-0.7-0.5-0.6C296.4,52,296.5,52.4,296.6,52.6z
			 M304.6,36.3c0.5-0.2,0.3-0.6,0.3-0.9c0-0.5,0.4-1.1-0.3-1.4c-0.3-0.9-0.9-1.5-2-1.2c-0.4-0.1-0.7-0.2-0.7-0.7
			c1.3-0.9,1.3-0.9,0.3-1.8c0-0.4-0.1-0.7-0.6-0.6c-0.7-0.6-1.4-0.7-2.1,0c-0.4,0-0.3,0.3-0.4,0.6c-0.7,0-0.9,0.3-0.8,1
			c-0.1,0.1-0.3,0.1-0.4,0.3c-0.2,0.5-1.1,0.1-1,0.6c0.2,0.5,0.9,0.3,1.4,0.3c0.5,0,0.9-0.1,1.1-0.6c0.6-0.4-0.2-0.9,0-1.3
			c0.7,0.1,1.4,0,2.1-0.2c0,0.2,0,0.4,0,0.6c-0.6,0-0.8,0.4-0.9,0.9c-0.4,0.2-0.3,0.6-0.3,0.9c-0.5,0.1-0.9,0.1-0.8,0.8
			c0.1,0.5,0.5,0.4,0.8,0.3c0,0.2,0.1,0.3,0.1,0.5c-0.2,1,0,1.3,1.2,1.7c0.2,0,0.3,0,0.5,0c0.5,0.2,1.1,0.3,1.6,0c0.1,0,0.2,0,0.4,0
			C304.1,36.3,304.4,36.3,304.6,36.3z M289.4,35.7c-0.1-0.4,0.1-1-0.6-0.9c-0.3,0-0.6-0.1-0.8,0.3c-0.2,0.4-1.1,0.3-0.8,0.9
			c0.2,0.6,0.9,0.2,1.3,0.1c0,0.3,0.1,0.6,0.1,0.8c-0.1,0.1-0.4,0.4-0.3,0.4c0.8,0.3,1.5-0.2,2.2-0.4c0.7-0.2,0.4-0.8,0.5-1.3
			c-0.2-0.4-0.4-0.4-0.6-0.1c-0.3,0.1-0.6,0.2-0.9,0.3C289.5,35.8,289.5,35.8,289.4,35.7z M290.7,33.6c-0.4-0.1-0.8,0.2-1.2,0.3
			c-0.2,0-0.3,0.1-0.3,0.3c0,0.3,0.3,0.3,0.5,0.3c0.3,0,0.5,0,0.6-0.3c0.7,0.2,1.4,0.5,1.9-0.3c0.5-0.2,0.6-0.7,0.6-1.2
			c0.5-0.3,1-1,1.5-1c1,0.1,1.7-0.5,2.4-1c1,0,0.5-0.8,0.6-1.2c0.6-0.1,1-0.6,1.7-0.6c0.2,0,0.3-0.1,0.3-0.3c0-0.2-0.2-0.2-0.3-0.3
			c-1.2-0.2-2.1,0.3-3,1.1c-0.4,0.1-0.5,0.4-0.4,0.8c-0.8,0.6-1.7,0.5-2.5,0.5c-0.1-0.5-0.7-0.5-0.9-1c-0.1-0.4,0-0.9-0.6-0.8
			c-0.4,0.1-0.8,0.4-0.8,0.8c0,0.8-0.6,1.5-0.3,2.3c0.3,0.8,1,0.3,1.4,0.5C291.7,33.2,290.6,32.6,290.7,33.6L290.7,33.6z
			 M296.4,42.1c0.3,0,0.6,0,0.9,0c0.8-0.1,1.8,0.4,2.5-0.2c0.7-0.5,1.3-0.6,2.1-0.3c0.4,0.2,0.5-0.1,0.6-0.4c0.6,0,1.2,0,1.8-0.3
			c0.3-0.1,0.6-0.3,0.6-0.6c0-0.4-0.5-0.3-0.7-0.3c-1.1,0-2.3,0-3.4-0.1c0.5-1.1,0.5-1.1-0.7-1.2c0-0.3,0-0.5,0.3-0.6
			c0.3,0,0.8,0.2,0.8-0.2c0-0.6-0.5-0.3-0.9-0.2c-1.1,0.4-2.5,0-3.3,1.4c-0.3,0.6-0.6,0.2-0.6-0.3c0-0.4,0.3-1.1-0.4-1.1
			c-1.4,0-2.7-0.2-4.1,0.2c-0.3,0.1-0.9,0.2-0.9,0.7c0,0.4,0.3,0.9,0.9,0.8c0.7,0,0.5,0.3,0.2,0.6c-0.1,0.1-0.4,0.2-0.5,0.4
			c-0.3,0.4-0.6,1-0.2,1.4c0.3,0.3,0.6-0.5,1-0.5c0.2,0,0.4,0.1,0.6,0.1c-0.2,0.7,0,1.1,0.9,1c0.6-0.1,1.3-0.1,1.9-0.2
			C296,42.1,296.2,42.1,296.4,42.1z M295.8,36.3c0.7,0,1.4,0,2.1,0c0.5,0,1.2,0.3,1.4-0.3c0.2-0.6,0-1.2-0.5-1.7
			c-0.6-0.6-1.1-1.2-1.9-1.3c-1.8-0.4-2.9,0.8-4.2,1.8c-0.1,0.1-0.2,0.4-0.2,0.5c-0.3,0.6-0.1,1,0.6,1
			C294,36.3,294.9,36.3,295.8,36.3z"/>
		<path class="st1" d="M344.1,49.7c0.7,0,1.2,0.3,1.2,1.1c0,1.6,0.2,3.1-0.2,4.7c-1.1,0.1-2.1-0.6-3.3-0.3c-0.3,0-0.6-0.1-0.8-0.1
			c-0.2-0.3-0.4-0.3-0.7-0.2c-0.3-0.1-0.6-0.1-0.8-0.2c-0.3-0.7-1.2-0.5-1.7-0.9c-0.2-0.1-0.4-0.2-0.7-0.3c-0.1-0.1-0.2-0.2-0.3-0.2
			c-0.2-0.2-0.4-0.4-0.7-0.6c0.1-0.4-0.1-0.6-0.4-0.7c-0.8-0.9-0.9-2-0.9-3.1c-0.2-8.7-0.1-17.4,0-26c0.1-3.2,0.5-6.4,1.1-9.6
			c0.2-1,0.5-1,1.3-0.9c1.4,0.2,2.7,0.6,4.1,1c0.8,0.6,0.6,1.5,0.7,2.4c0,0.5-0.3,1.2,0.6,1.3c0,0.2,0,0.4,0,0.6
			c-0.2,0-0.5,0-0.5,0.2c0.3,1.3-0.6,2.5-0.4,3.8c0,0.3-0.1,0.6-0.1,0.9c-0.4,1.2-0.7,2.4-0.5,3.7c0,0.2,0,0.4,0,0.5
			c-0.7,0.3-0.4,0.9-0.4,1.3c0,3.5-0.2,7,0.3,10.4c0.3,1.7,0.4,3.5,1.2,5.1c0,0.2,0,0.4,0,0.6c0,0.6-0.2,1.3,0.3,1.9
			c0.1,0.9-0.1,1.9,0.3,2.8C342.8,49.4,343.2,49.8,344.1,49.7z M337.1,14c-0.6,0.7,0.4,1.3,0,1.9c0.6-0.1,0.4-0.8,0.9-1
			c0.1,0,0.2-0.2,0.3-0.3c0.3-0.1,0.8,0.1,0.8-0.4c0-0.6-0.5-0.4-0.7-0.4C337.9,13.8,337.4,13.6,337.1,14z M340.2,14.7
			c-0.1,0.2-0.3,0.4-0.4,0.5c-0.3,0.1-0.6,0.3-0.5,0.6c0,0.2,0.2,0.7,0.5,0.2c1.4,0.1,1.4,0.1,1.3-1.4c0.2-0.4,0.1-0.7-0.4-0.7
			C340.3,14,340.1,14.3,340.2,14.7z M337.7,26.6c-0.4,0.5-0.4,0.5,0.3,0.6c-0.1,0.2-0.2,0.4-0.3,0.5c-0.2,0.2-0.4,0.5-0.6,0.6
			c-1.3,0.4-1.4,1.5-1.3,2.5c0.1,1.9,0.2,3.7,0.2,5.6c0,0.5,0.2,0.9,0.7,0.5c0.6-0.4,0.6,0.2,0.8,0.5c0.3,0.4,0,0.6-0.4,0.7
			c-0.4,0.1-0.6,0.5-0.9,0.7c-0.3,0.2-0.5,0.5,0.1,0.7c0.8,0.3,0.4,1.3,1,1.7c0,0-0.4,0.6-0.7,0.9c-0.5,0.6-0.8,1.3-0.2,2.1
			c0.2,0.6,0.5,1.1,0.7,1.7c-1,0.2-1.1,1.4-1.1,1.9c0.1,1.2,0.3,2.6,1.3,3.5c0.4,0,0.9,0.1,1.3,0c0.8-0.3,1.3-0.1,1.5,0.7
			c0.2,0.8,0.8,0.9,1.5,0.8c0,0,0,0.1,0.1,0.1c0,0,0.1,0,0.1,0c0,0-0.1-0.1-0.1-0.1c0-0.3,0.2-0.6,0.5-0.6c0.3-0.1,0.5-0.4,0.3-0.5
			c-0.6-0.5-0.2-1.5-1.1-1.9c-1.1-0.5-1.1-0.8-0.2-1.7c0.8-0.7,0.3-1-0.3-1c-0.7-0.1-0.7-0.4-0.7-0.9c1.1-0.1,0.9-0.8,0.8-1.6
			c-0.5-3.2-1.2-6.4-1-9.6c0-0.5,0-1.1-0.7-1.3c-0.6-0.2-0.5-0.7-0.2-1c0.8-0.8,0.7-1.6,0.2-2.4c0-0.3,0-0.7,0-1
			c0.5-0.3,0.3-0.7,0.3-1.1c0.3-0.1,0.4-0.3,0.2-0.6c-0.4-0.3-0.4-0.7-0.4-1.1c0.3-0.6,0.6-1.2,0.9-1.9c0.1-0.2,0.1-0.5-0.2-0.7
			c-0.2-0.2-0.5-0.1-0.7,0.2C338.8,25.2,337.9,25.6,337.7,26.6z M338.5,20.5c1.6-0.6,2.3-1.7,2.7-3.1c0-0.2,0.1-0.4-0.1-0.6
			c-0.3-0.2-0.6,0-0.6,0.2C340.1,18.3,338.9,19,338.5,20.5z M337.8,24.1c-0.7,0-1.7,1.3-1.5,2.1c0.1,0.2,0.2,0.4,0.4,0.2
			c0.5-0.6,1.2-0.9,1.6-1.6C338.3,24.4,338.3,24.1,337.8,24.1z M339.7,17c-0.1-0.2-0.3-0.3-0.5-0.2c-0.1,0-0.2,0.1-0.1,0.2
			c0.2,0.1,0.3,0.2,0.5,0.3C339.6,17.2,339.7,17.1,339.7,17z"/>
		<path class="st4" d="M85.6,6.7c-0.5-0.4-1.1-0.3-1.7-0.3c-3.4,0-6.8,0-10.2,0c-0.8,0-1.6,0-2.4-0.2c0.2-0.9,0.9-0.9,1.6-0.9
			c4.2,0,8.3,0,12.5,0c0.4,0,1.2-0.3,1.2,0.4C86.7,6.2,86.2,6.6,85.6,6.7z"/>
		<path class="st3" d="M29.3,62.1c0.6-0.8,0.7-1.6,0.7-2.5c0.1-4.1-0.5-8.1-0.4-12.2c0-0.6,0-1.1,0-1.7c0.3,0.1,0.6,0.3,0.5,0.6
			c-0.1,1.7,0.4,3.3,0.3,5c-0.1,3,0,6.1,0,9.2C30.6,61.4,30.5,62.2,29.3,62.1z"/>
		<path class="st5" d="M342.2,43.3c-0.7-1.6-0.9-3.4-1.2-5.1c-0.5-3.4-0.4-6.9-0.3-10.4c0-0.4-0.3-1,0.4-1.3c0.4,0.4,0.2,1,0.2,1.5
			c0.1,2.9-0.3,5.8,0.3,8.6c0.4,1.7,0.1,3.5,0.8,5.2C342.6,42.2,342.7,42.9,342.2,43.3z"/>
		<path class="st3" d="M23.9,39.1c0.5,0.4,0.3,1,0.3,1.6c0.1,1.1,0.2,2.3,0,3.3c-0.2,0.9,1.3,0.8,0.7,1.7c-0.4,0.6-0.4,1.2-0.4,1.9
			c0,1.6,0,3.1,0,4.7c0,0.6,0.1,1.1-0.6,1.4c0-2.6,0.1-5.1,0-7.7c-0.1-1.8-0.4-3.7-0.3-5.6C23.6,40,23.4,39.4,23.9,39.1z"/>
		<path class="st5" d="M305,51.9c-0.4-0.1-0.6-0.3-0.6-0.7c-0.1-1-0.1-2.1-1.1-2.8c-0.2-0.2-0.2-0.5-0.1-0.7
			c0.2-0.5,0.3,0.1,0.5,0.1c0.8,0.1,0.6-0.4,0.7-0.8c0-0.2,0-0.4,0.3-0.5c0.3-0.1,0.5,0.1,0.6,0.4c0.6,1.6,0.5,3.2,0.2,4.9
			C305.4,51.8,305.2,51.8,305,51.9z"/>
		<path class="st6" d="M363.3,25c-1.4,0-2.8,0-4.3,0c-0.7,0-0.9-0.3-0.9-0.9c0-0.8-0.1-1.5,0.1-2.3c0.4,0.2,0.4,0.6,0.4,1
			c0.1,1.3,0.1,1.3,1.4,1.3c0.9,0,1.7,0,2.6,0C363.1,24.2,363.7,24.3,363.3,25z"/>
		<path class="st3" d="M29.7,43.9c-0.1-0.1-0.2-0.1-0.2-0.2c0-2.5-0.7-5-0.3-7.5c0.2,0.1,0.4,0.2,0.4,0.4c0,2.3,0.6,4.6,0.3,6.9
			C29.9,43.7,29.8,43.8,29.7,43.9z"/>
		<path class="st3" d="M23.9,61.9c1.3,1,2.5,1.4,4,0.4c0.3-0.2,0.9-0.1,1.3-0.2c-0.2,1-1.1,1.1-1.8,1.2c-0.6,0.1-1.3,0-1.9,0
			C24.3,63.4,24.1,63.2,23.9,61.9z"/>
		<path class="st5" d="M342.6,16.8c-0.9-0.1-0.6-0.8-0.6-1.3c-0.1-0.8,0.1-1.7-0.7-2.4c1.4,0.1,1.5,0.1,1.5,1.4
			C342.8,15.2,343.1,16.1,342.6,16.8z"/>
		<path class="st6" d="M358.1,31.7c0-0.4,0.2-0.6,0.7-0.6c0.7,0,1.4,0.1,2-0.2c0.2-0.1,0.5,0,0.6,0.2c0.2,0.8,0.8,0.5,1.3,0.7
			c-0.2,0.7-0.6,0.4-1.1,0.3C360.5,31.7,359.3,31.6,358.1,31.7z"/>
		<path class="st3" d="M22.3,60.3c0.4-0.6,0.6-1.7,1.3-1.6c0.7,0.2,0.2,1.2,0.3,1.9c0,0.2,0,0.5-0.1,0.7
			C23.2,61.2,23.1,60.3,22.3,60.3z"/>
		<path class="st5" d="M341.7,21.4c-0.3-1.3,0.6-2.5,0.4-3.8c0-0.2,0.3-0.2,0.5-0.2c0.6,1-0.2,1.9-0.3,2.8
			C342.3,20.6,342.4,21.2,341.7,21.4z"/>
		<path class="st5" d="M341.9,55.1c1.1-0.3,2.2,0.4,3.3,0.3c0.2,0.4,0,0.7-0.5,0.7C343.5,56.2,342.6,55.8,341.9,55.1z"/>
		<path class="st6" d="M357.6,37.5c-0.6-1.3-0.6-2.7,0-4C357.9,34.9,357.9,36.2,357.6,37.5z"/>
		<path class="st5" d="M341.2,26c-0.2-1.3,0-2.5,0.5-3.7C342.2,23.6,341.8,24.8,341.2,26z"/>
		<path class="st6" d="M358.7,46.7c-0.4-1.2-0.7-2.5-0.5-3.8C358.7,43.8,359,45.7,358.7,46.7z"/>
		<path class="st3" d="M29.1,32c-0.5-0.7-0.3-1.7-0.6-2.5c0.5-0.5,0.8,0,0.8,0.3C29.3,30.6,29.6,31.4,29.1,32z"/>
		<path class="st5" d="M299.8,51.1c-0.2-0.9,0.7-0.9,1.2-1.3c0.1-0.1,0.3,0.1,0.3,0.2c-0.1,0.5-0.4,1-0.9,1.3
			c-0.2,0.1-0.4,0.2-0.5,0.3C299.8,51.4,299.8,51.3,299.8,51.1z"/>
		<path class="st6" d="M363.3,30.2c-0.5-0.8-0.5-1.6,0-2.4C363.7,28.6,363.7,29.4,363.3,30.2z"/>
		<path class="st5" d="M303.5,51.9c-0.1,0.6-0.2,1.2-0.9,1.4c-0.1,0-0.2-0.1-0.2-0.1c0.2-0.6-0.1-1.3,0.7-1.7
			C303.2,51.6,303.3,51.7,303.5,51.9z"/>
		<path class="st3" d="M22.1,55.3c-0.4,0.8-1.2,0.5-1.8,0.6C20.7,55.2,21.2,55,22.1,55.3z"/>
		<path class="st5" d="M337.8,53.6c0.5,0.4,1.4,0.2,1.7,0.9C338.7,54.8,338,54.4,337.8,53.6z"/>
		<path class="st5" d="M342.6,45.8c-0.6-0.5-0.3-1.2-0.3-1.9C343.2,44.4,342.8,45.1,342.6,45.8z"/>
		<path class="st6" d="M358.1,20.4c-0.6-0.5-0.2-1.2-0.3-1.9C358.7,19.1,358.4,19.8,358.1,20.4z"/>
		<path class="st5" d="M344.1,49.7c-0.9,0.1-1.3-0.3-1.3-1.2C343.5,48.7,343.8,49.1,344.1,49.7z"/>
		<path class="st3" d="M24.5,29.6c0,0.5-0.2,0.8-0.6,0.9c-0.4-0.3-0.3-0.6-0.1-0.9C24,29.4,24.3,29.2,24.5,29.6z"/>
		<path class="st5" d="M301.8,51.2c0,0.2,0.5,0.4,0.1,0.7c-0.3,0-0.5,1-0.9,0.4C300.7,51.7,301.3,51.4,301.8,51.2z"/>
		<path class="st6" d="M358.1,42.1c-0.5-0.3-0.3-0.8-0.3-1.3C358.5,41.1,358.5,41.6,358.1,42.1z"/>
		<path class="st6" d="M357.8,40c-0.4-0.3-0.4-0.6-0.1-0.9C358.1,39.3,358.1,39.6,357.8,40z"/>
		<path class="st3" d="M23.9,53.7c0,0.4,0,0.9-0.6,0.9C23.3,54.2,23.2,53.7,23.9,53.7z"/>
		<path class="st6" d="M296.6,52.6c-0.1-0.3-0.2-0.6,0.2-0.7c0.5-0.1,0.5,0.2,0.5,0.6C297.1,52.6,296.8,52.6,296.6,52.6z"/>
		<path class="st6" d="M357.6,18.2c-0.4,0.1-0.7,0-0.7-0.4C357.4,17.4,357.5,17.9,357.6,18.2z"/>
		<path class="st6" d="M362.7,31.8c-0.1-0.4,0.1-0.6,0.5-0.7C363.3,31.5,363.2,31.7,362.7,31.8z"/>
		<path class="st5" d="M302.5,50.3c0,0.4-0.1,0.6-0.5,0.7C301.9,50.6,302.1,50.3,302.5,50.3z"/>
		<path class="st5" d="M335.7,51.8c0.3,0.1,0.5,0.4,0.4,0.7C335.6,52.5,335.5,52.2,335.7,51.8z"/>
		<path class="st5" d="M340.3,54.7c0.3-0.1,0.5-0.1,0.7,0.2C340.6,55.4,340.5,55.1,340.3,54.7z"/>
		<path class="st6" d="M298,51.6c-0.2-0.1-0.3-0.2-0.2-0.4c0-0.1,0.2-0.1,0.4-0.1C298.1,51.2,298,51.4,298,51.6z"/>
		<path class="st1" d="M299.8,51.1c0,0.2,0,0.3,0,0.5c-0.2,0.1-0.3,0.1-0.5,0.2c-0.1-0.1-0.2-0.2-0.3-0.3
			C299.3,51.2,299.5,51.1,299.8,51.1z"/>
		<path class="st6" d="M296.2,53.4c-0.1,0-0.3-0.1-0.4-0.1c0-0.1,0.1-0.2,0.2-0.2c0.2,0,0.3,0,0.5,0
			C296.5,53.3,296.4,53.4,296.2,53.4z"/>
		<path class="st5" d="M336.8,53c0.1,0.1,0.2,0.2,0.3,0.2C336.9,53.3,336.8,53.2,336.8,53z"/>
		<polygon class="st5" points="303.3,50 303.3,49.9 303.4,49.9 		"/>
		<path class="st7" d="M89.5,5.5c-0.1,1.6,0.4,2.9,0.4,4.2c0,16,0,32,0,48c0,0.5,0.4,1.5-0.3,1.5c-0.5,0-0.2-0.9-0.2-1.5
			c0-16.9,0-33.8,0-50.8C89.2,6.6,89.1,6.1,89.5,5.5z"/>
		<path class="st7" d="M98.6,28.6c0,10,0,20,0,30.1c0,0-0.1,0-0.1,0c0-10,0-20,0-30.1C98.5,28.6,98.6,28.6,98.6,28.6z"/>
		<path class="st7" d="M121.7,8.4c0,0.2,0,0.4,0,0.6c0,0.4-0.1,0.8-0.1,1.2c0,8.7,0,17.5,0,26.2c0,0.4,0.1,0.8,0.1,1.2l0,0.1
			c-0.5-0.3-0.4-0.9-0.4-1.4c0-9.1,0-18.1,0-27.2C121.3,8.5,121.3,8.5,121.7,8.4z"/>
		<path class="st7" d="M99.2,32.6c0,9,0,18,0,27c0,0-0.1,0-0.1,0c0-9,0-18,0-27C99.1,32.6,99.2,32.6,99.2,32.6z"/>
		<path class="st7" d="M91.3,59.9c2,0,4.1,0,6.1,0c0,0.1,0,0.1,0,0.2c-2.1,0-4.1,0-6.2,0C91.3,60,91.3,59.9,91.3,59.9z"/>
		<path class="st8" d="M41.8,6.6c0,17.9,0,35.7,0,53.6c0,0-0.1,0-0.1,0c0-17.9,0-35.7,0-53.6C41.7,6.6,41.8,6.6,41.8,6.6z"/>
		<path class="st7" d="M42.5,8.2c0,16.8,0,33.6,0,50.4c0,0-0.1,0-0.1,0c0-16.8,0-33.6,0-50.4C42.4,8.2,42.4,8.2,42.5,8.2z"/>
		<path class="st7" d="M51.6,6.6c0,7.4,0,14.8,0,22.1c-0.1,0-0.1,0-0.2,0c0-7.4,0-14.8,0-22.1C51.5,6.6,51.5,6.6,51.6,6.6z"/>
		<path class="st7" d="M43,6.2c-0.1,0.1-0.1,0.2-0.2,0.2c-0.1,0-0.2,0-0.3,0c-0.1-0.1-0.1-0.2,0-0.2C42.6,6.1,42.8,6.2,43,6.2z"/>
		<path class="st7" d="M50.8,6.3c-0.1,0-0.1-0.1-0.2-0.1c0,0,0.1-0.1,0.1-0.1C50.8,6.2,50.8,6.2,50.8,6.3
			C50.9,6.3,50.8,6.3,50.8,6.3z"/>
		<path class="st6" d="M323.7,32c-0.2,0-0.6,0-0.6-0.3c0-0.6-0.3-0.9-0.8-1.1c-0.4-0.1-0.4-0.3,0-0.4c0.3-0.1,0.5-0.2,0.3-0.5
			c-0.2-0.2-0.3-0.6-0.7-0.5c-0.7,0.1-1.2-0.6-1.9-0.7c-0.2,0-0.4-0.3-0.3-0.6c0.1-0.6,0.5-0.1,0.7-0.2c0.5-0.3,1.1,0.3,1.7-0.1
			c0.2-0.2,0.9,0.2,0.9,0.6C322.7,29.5,323.9,30.7,323.7,32L323.7,32z"/>
		<path class="st5" d="M315.1,51.5c0-0.4-0.2-0.9,0.4-1.2c0.3,0,0.6,0,0.9,0.1c0.3,0.2,0.6,0.3,0.9-0.1l0,0c0.6,0,0.7,0.4,0.6,0.8
			c-0.1,0.4-0.4,0.4-0.7,0.4c-0.2,0-0.5,0-0.7,0c-0.8,0-0.9,0.1-0.1,0.5c0.1,0,0.1,0.3,0,0.4c-0.1,0.3-0.3,0.1-0.5,0.1
			C315.1,52.5,315,52.1,315.1,51.5z"/>
		<path class="st6" d="M325.7,47.2c0-0.3-0.1-0.5-0.4-0.5c-0.2,0-0.5-0.2-0.1-0.3c0.7-0.2,0.5-0.7,0.5-1.1c0-0.3,0.2-0.5,0.5-0.4
			c0.3,0,0.4,0.3,0.4,0.5c-0.2,0.5-0.4,1,0.2,1.5c0.2,0.1,0,0.4-0.2,0.4c-0.5,0-0.6,0.9-1.1,0.6C325,47.6,325.9,47.5,325.7,47.2z"/>
		<path class="st5" d="M316.2,42.1L316.2,42.1l-0.1,0c-0.4,0.1-0.8,0.4-1.2,0.4c-0.1-0.1-0.1-0.1-0.2-0.2c0.3-0.4,0.5-1,1-1.3
			c0.2-0.2,0.4-0.5,0.8-0.3c0.3,0.2,0.2,0.5,0.1,0.8C316.5,41.7,316.3,41.9,316.2,42.1z"/>
		<path class="st5" d="M313.8,48.4c-0.1,0.3-0.1,0.6-0.4,0.7c-0.6-0.9,0-1.8,0-2.7c0-0.1,0.4-0.3,0.4-0.1c-0.2,0.5,0.8,1,0.1,1.5
			c0,0,0-0.1-0.1-0.1c0,0-0.1,0-0.1,0c0.1,0.1,0.1,0.1,0.2,0.2C313.8,48.1,313.8,48.3,313.8,48.4z"/>
		<path class="st6" d="M316.2,29.3c-0.4-0.2-0.7,0-1.1,0c0.2-0.2-1.1-0.4-0.1-0.7c0,0,0.1,0,0.1,0c0.5-0.1,0.8-0.9,1.2-0.6
			C316.8,28.2,316.2,28.9,316.2,29.3z"/>
		<path class="st5" d="M315.9,30.7c0.1-0.4,0.2-0.7,0.4-1.1c0.2,0,0.5,0,0.7,0c0,0.4,0.3,0.5,0.6,0.7
			C317.2,31.2,316.5,30.7,315.9,30.7z"/>
		<path class="st6" d="M317.6,28.4c0.3,0.4,0.6-0.2,0.9-0.1c0.4,0.1,0.8,0.3,0.2,0.7c-0.4,0-0.8,0-1.1,0
			C317.1,28.7,317.1,28.5,317.6,28.4z"/>
		<path class="st5" d="M317.5,29c0.4,0,0.8,0,1.1,0c-0.1,0.3-0.3,0.6-0.6,0.6c-0.3,0-0.6,0-0.9,0C317.3,29.4,317.4,29.2,317.5,29z"
			/>
		<path class="st5" d="M314.9,42.5c-0.1,0.2-0.2,0.4-0.3,0.5c-0.2,0.1-0.4,0.4-0.6,0.1c-0.1-0.2,0-0.4,0.2-0.5
			c0.2-0.1,0.4-0.2,0.5-0.2C314.7,42.4,314.8,42.4,314.9,42.5z"/>
		<path class="st5" d="M324.5,47.1c0,0.1-0.1,0.1-0.3,0.2c-0.2,0-0.4,0-0.4-0.2c0-0.2,0.1-0.2,0.3-0.3
			C324.2,46.7,324.4,46.7,324.5,47.1z"/>
		<path class="st5" d="M313.2,49.7c0.3,0,0.6-0.1,0.7,0.1c0.1,0.3-0.1,0.4-0.4,0.5C313.3,50.3,313.2,50,313.2,49.7z"/>
		<path class="st5" d="M317.2,50.3c-0.1,0-0.3,0-0.4-0.1c-0.1,0,0-0.1,0.1-0.2C317,50.1,317.2,50.2,317.2,50.3L317.2,50.3z"/>
		<path class="st5" d="M315,49.5c-0.2-0.2-0.3-0.4-0.2-0.7C315.1,49,315.1,49.2,315,49.5z"/>
		<path class="st6" d="M321.3,30.4c0.1,0,0.1,0.1,0.2,0.1c0,0,0,0.1,0,0.1c-0.1,0.1-0.2,0.1-0.2,0C321.2,30.5,321.3,30.4,321.3,30.4
			z"/>
		<path class="st6" d="M315.1,29.3c-0.1,0.2-0.2,0.2-0.4,0.2C314.8,29.4,314.9,29.3,315.1,29.3z"/>
		<polygon class="st5" points="312.5,49.3 312.4,49.2 312.5,49.3 		"/>
		<path class="st3" d="M17.3,58.2c1.6,0,3,0.2,4.3-0.5c0.2-0.1,0.5-0.1,0.7-0.1c0.2,0,0.4,0,0.5,0.2c0.1,0.2,0,0.5-0.2,0.5
			c-1.3,0.5-1.8,2-3.2,2.4c-0.3,0.1-0.8,0.4-1,0.2c-1.2-1-2.5-0.1-3.7-0.3c-0.8-0.1-1.6,0-2.1-1c-0.2-0.4-1.2-0.5-1.9-0.8
			c-0.7-0.4-1.3-0.8-1.5-1.6c-0.1-0.2-0.1-0.4-0.2-0.6c-1.1-1.8-0.9-2.4,1-3.3c0.3-0.1,0.7-0.2,0.8,0c0.4,0.6,0.2,1.5,1.3,1.4
			c0.2,0-0.1,0.7-0.3,1.1c-0.3,0.5-0.2,0.8,0.4,0.7c0.5,0,1,0,1.1,0.6c0.2,0.9,0.9,0.9,1.7,0.9C15.9,58.2,16.6,58.2,17.3,58.2z"/>
		<path class="st3" d="M7.4,34.9c0-1.1,0-2.2-0.3-3.3C7,31,7.2,30.4,7.8,30c0.6-0.3,1.1,0,1.6,0.2c0.2,0.1,0.4,0.3,0.4,0.4
			c-0.3,1.4,1.2,2.8-0.1,4.3c-0.3,0.4-0.2,1.2-0.3,1.7c-0.2,0.8-0.9,0.9-1.4,0.9c-0.7,0-0.5-0.7-0.5-1.2C7.4,35.9,7.4,35.4,7.4,34.9
			z"/>
		<path class="st3" d="M27.9,33.8c0,1.5-0.2,2.7-1.2,3.7c-0.3,0.3-0.6,0.6-1,0.3c-0.4-0.3-0.1-0.7,0.1-1c0.5-0.8,0.3-1.3,0-2.2
			c-0.4-1-0.1-2.4,0.5-3.5c0.2-0.3,0.6-0.3,0.7,0C27.3,32,28.3,32.7,27.9,33.8z"/>
		<path class="st3" d="M7.6,48.2c0.4-1.2,1.5-2,2.2-3c0.3-0.4,0.9-0.5,0.9,0.2c0,1.1,0.4,2.2-0.2,3.2C9.5,48.3,8.5,48.9,7.6,48.2z"
			/>
		<path class="st3" d="M27.6,43.3c0.1,1.2-0.5,2.2,0,3.2c0.1,0.2,0,0.5-0.1,0.7c-0.2,0.5-0.6,1-1.1,0.9C25.7,48,25.9,47.3,26,47
			c0.4-1,0.5-2.1,0.3-3.2c0-0.1,0-0.3,0-0.4c0.2-0.5,0.6-1.1,1-1C27.9,42.4,27.3,43.1,27.6,43.3z"/>
		<path class="st3" d="M9.6,40c1.5-0.1,0.8,1.1,0.9,1.7C10.6,42.5,10,43,9.2,43c-0.4,0-0.8-0.2-1.2-0.3c0-0.2-0.1-0.3-0.3-0.3
			c0-0.1,0-0.2,0-0.4C8.1,41.2,9.5,41.1,9.6,40z"/>
		<path class="st3" d="M26.9,58.9c-0.3,0-0.9-0.2-0.6-0.5c0.3-0.5,0.5-1.2,1.3-1.3c0.5-0.1,0.7,0.2,0.7,0.7
			C28.2,58.5,27.7,58.9,26.9,58.9z"/>
		<path class="st9" d="M7.6,48.2c0.9,0.7,1.9,0.2,2.9,0.4c0,0.3-0.1,0.5-0.4,0.6c-0.8,0-1.6,0.1-2.4,0C6.9,48.9,6.9,48.5,7.6,48.2z"
			/>
		<path class="st9" d="M9.6,40c-0.1,1.2-1.4,1.3-1.9,2.1c-0.2-0.5-0.5-1,0.3-1.3c0.6-0.2,0.7-0.8,1.2-1.2C9.6,39.4,9.5,39.7,9.6,40z
			"/>
		<path class="st9" d="M7.7,42.4c0.2,0,0.3,0.1,0.3,0.3C7.8,42.7,7.7,42.6,7.7,42.4z"/>
		<path class="st5" d="M384.4,30.3c0,0.4-0.4,0.5-0.6,0.6c-0.3,0.2-0.5,0.5,0,0.7c0.3,0.1,0.6,0.6,0.8-0.1c0.1-0.4,0.4-0.6,0.8-0.4
			c0.3,0.2,0.1,0.5,0.1,0.8c-0.2,0.7-0.5,1.4-1.2,1.8c-0.2,0.1-0.4,0.3-0.2,0.5c0.1,0.1,0.4,0.1,0.6,0.1c0.1,0,0.3-0.1,0.4-0.2
			c0.4-0.3,0.9-0.6,1.2-0.3c0.5,0.4-0.6,0.9-0.1,1.4c-0.4,0.4-0.8,0.1-1.1-0.2c-0.8-0.6-0.5,0.2-0.6,0.5c0,0-0.1,0-0.1,0
			c0,0,0,0,0,0.1c0,0,0.1-0.1,0.1-0.1c0.6,0.3,0.1,0.6,0,0.9c-0.4-0.3-0.8-0.3-0.7-1.1c0-1.1-0.6-2.3-1-3.4
			c-0.1-0.4-0.4-0.7-1.1-0.7c-0.7,0-1.3-0.5-1.1-1.4c0.4-0.3,0.8-0.5,0.9-1c0.6,0.1,0.9-0.5,1.3-0.7c0.4-0.3,0.9-0.3,1.3,0
			c0.4,0.3,0.2,0.6,0,1.1C383.7,29.7,384.1,30.1,384.4,30.3z"/>
		<path class="st6" d="M380.5,26.6c-1.2,1-2.1,2.1-3.4,3c-0.2-0.1-0.4-0.3-0.4-0.5c0.3-0.5,1-0.6,1.3-1.2c0.1-0.2,0.3-0.3,0.2-0.5
			c-0.1-0.2-0.4,0-0.5,0c-0.9,0.2-1.5,1.2-2.5,1.1c-0.3,0-0.7,0-1,0c-0.5,0-0.7-0.2-0.6-0.7c1,0.2,1.9-0.1,2.9-0.5
			c0.9-0.4,1.4-1.2,2.4-1.3c0.4,0,0.9,0,1.3,0l0,0C380.1,26.2,380.2,26.5,380.5,26.6z M379,27C378.9,27,378.9,26.9,379,27
			c-0.1-0.1-0.2-0.1-0.2-0.1c-0.1,0.1-0.1,0.1,0.1,0.1C378.9,27.1,378.9,27,379,27z"/>
		<path class="st6" d="M380,28.6c-0.1-0.9,0.6-0.9,1.2-1c0,0.4,0.1,0.9,0.1,1.3c-0.1,0.5-0.5,0.7-0.9,1c0-0.1,0-0.3-0.1-0.4
			c0-0.1,0-0.2,0-0.3c0.1-0.1,0.2-0.3,0.4-0.4c-0.2-0.2-0.4-0.1-0.7-0.1L380,28.6z"/>
		<path class="st5" d="M370.6,14c0.4-0.5,1-1.1,1.4-0.6c0.3,0.3-0.3,1.1-1,1.3c-0.1,0-0.2,0-0.3,0c0-0.1-0.1-0.2-0.1-0.3
			C370.6,14.2,370.6,14.1,370.6,14z"/>
		<path class="st5" d="M385.6,43.9c-0.1,0-0.2,0-0.3,0c-0.3,0-0.6,0.5-0.9,0c-0.2-0.4,0-0.7,0.4-0.9c0.2-0.1,0.5-0.1,0.7-0.1
			C385.6,43.3,385.6,43.6,385.6,43.9z"/>
		<path class="st5" d="M384.3,52.4c0.1-0.8,0.6-0.9,1.2-0.9C385.6,52.7,385.5,52.8,384.3,52.4z"/>
		<path class="st6" d="M371.4,43.5c-0.6-0.1-1.5-0.1-0.3-0.8c0.1-0.1,0.1-0.4,0.2-0.5c0-0.1,0-0.2,0.1-0.3c0.1-0.1,0.2-0.1,0.2,0.1
			C371.5,42.4,371.6,43,371.4,43.5z"/>
		<path class="st6" d="M386.9,41.1c-0.5,0-1.1,0-1.6,0c0.1-0.2,0.2-0.4,0.3-0.7c0.1,0,0.2,0,0.3,0c0.2,0,0.4,0,0.6,0c0,0,0,0,0,0
			C386.5,40.9,387.1,40.7,386.9,41.1z"/>
		<path class="st6" d="M370.9,44.8c-0.3,0.5-0.3,1.2-1.1,1.3c0-0.1-0.1-0.2-0.1-0.3C370,45.5,370.1,44.7,370.9,44.8z"/>
		<path class="st6" d="M370.3,42.4c-0.1,0.3-0.3,0.5-0.5,0.6c-0.1-0.3-0.2-0.6,0.1-0.9C370,42.1,370.2,42.2,370.3,42.4z"/>
		<path class="st5" d="M385.5,42.9c0.1-0.6,0.5-0.5,0.9-0.6C386.4,42.9,386,43.1,385.5,42.9z"/>
		<path class="st6" d="M370,16.8c-0.2-0.4,0-0.8,0-1.2c0.4,0.1,0.3,0.6,0.7,0.7C370.5,16.5,370.4,16.8,370,16.8z"/>
		<path class="st6" d="M369.8,46.6c0.1,0,0.1,0,0.1,0c0,0.2,0,0.5,0,0.7c-0.2,0-0.4,0-0.5-0.1C369.4,47,369.5,46.7,369.8,46.6z"/>
		<path class="st6" d="M369,17.3c0.3-0.3,0.5-0.7,1-0.5c-0.1,0.3-0.2,0.5-0.6,0.6C369.3,17.3,369.1,17.3,369,17.3z"/>
		<path class="st6" d="M371.6,24.1c-0.2,0-0.6,0.2-0.6-0.2c0-0.3,0.3-0.3,0.6-0.3C371.6,23.7,371.6,23.9,371.6,24.1z"/>
		<path class="st6" d="M371.5,44.9c-0.2,0-0.4,0-0.6,0c-0.1-0.3,0-0.5,0.3-0.6C371.3,44.4,371.4,44.7,371.5,44.9z"/>
		<path class="st6" d="M386.5,42.4c0-0.2,0.2-0.3,0.4-0.3c0.1,0,0.4,0,0.3,0.1C387.1,42.6,386.7,42.4,386.5,42.4z"/>
		<path class="st5" d="M385.3,41.2c0,0.2,0,0.6-0.2,0.6c-0.3,0-0.2-0.4-0.2-0.6C385,41.3,385.2,41.3,385.3,41.2z"/>
		<path class="st6" d="M386.5,40.6c0-0.1,0.1-0.3,0.1-0.4c0.1,0,0.2,0.1,0.2,0.1C386.8,40.4,386.7,40.5,386.5,40.6L386.5,40.6z"/>
		<path class="st6" d="M369.8,43.1c0,0.2-0.2,0.3-0.3,0.3C369.4,43.2,369.5,43.1,369.8,43.1z"/>
		<path class="st6" d="M369.1,15.6c0,0-0.1,0-0.1,0s-0.1,0-0.1,0c0-0.1,0.1-0.1,0.1-0.2C369,15.5,369,15.5,369.1,15.6z"/>
		<path class="st5" d="M384.6,41.2c-0.1,0-0.1,0-0.2,0c-0.1-0.1-0.1-0.2,0-0.3C384.6,41,384.7,41.1,384.6,41.2z"/>
		<path class="st6" d="M370.6,14c0,0.1,0,0.2,0,0.4C370.4,14.2,370.4,14.1,370.6,14z"/>
		<path class="st6" d="M370,13.4c0-0.1-0.1-0.1-0.1-0.2c0.1,0,0.2,0,0.2,0.1C370.1,13.3,370.1,13.4,370,13.4z"/>
		<path class="st6" d="M369.9,13.2l-0.1,0l-0.1,0c0-0.1,0.1-0.1,0.1-0.2C369.9,13,369.9,13.1,369.9,13.2z"/>
		<path class="st6" d="M380.1,25.9c0.1,0,0.1-0.1,0.2-0.1C380.2,25.8,380.1,25.9,380.1,25.9C380.1,25.9,380.1,25.9,380.1,25.9z"/>
		<path class="st6" d="M378.9,25.6c-0.2,0-0.3-0.1-0.4-0.2C378.7,25.3,378.8,25.4,378.9,25.6z"/>
		<polygon class="st5" points="380.9,31.5 380.9,31.6 380.8,31.6 		"/>
		<path class="st6" d="M371.6,45.2c-0.1-0.1-0.1-0.2-0.1-0.3C371.8,44.9,371.8,45,371.6,45.2z"/>
		<path class="st6" d="M370.6,14.6c0.1,0,0.2,0,0.3,0C370.8,14.9,370.7,14.9,370.6,14.6z"/>
		<path class="st6" d="M371.9,24.4c0-0.1-0.1-0.2-0.1-0.3C372.1,24.2,372.2,24.2,371.9,24.4z"/>
		<path class="st6" d="M266.5,28.3c0-0.1,0.1-0.4,0.1-0.4c1.4-0.2,2.6-1.2,4-1.4c0.3,0,0.7,0.1,1-0.2c0.4-0.6,0.9-0.4,1.4-0.3
			c0.1,0.3,0.3,0.9-0.1,0.9c-0.8,0-1,0.6-1.4,1c-0.2,0.3-0.4,0.7-0.8,0.4c-0.5-0.3,0-0.6,0-0.9c0-0.1,0-0.2,0-0.3
			c0.2,0,0.5-0.1,0.7-0.1c0,0,0-0.1-0.1-0.1c-0.3-0.1-0.5,0-0.6,0.2c-0.8,0.3-1.7,0.5-2.3,1.2c-0.3,0.3-0.8,0.4-1.3,0.4
			C267.1,28.4,266.8,28.4,266.5,28.3z"/>
		<path class="st5" d="M279,51c0.6,0.4,0.5,1,0.1,1.4c-0.3,0.3-0.4,0.6-0.4,1.1c0,0.2,0,0.5-0.3,0.4c-0.7-0.2-0.9,0.1-0.9,0.7
			c0,0.3-0.3,0.4-0.6,0.3c-0.3-0.1,0-0.3,0-0.5c0.1-0.3,0.2-0.7,0.3-1c0.2-0.5,0.4-0.9-0.5-0.7c-0.6,0.1-0.5-0.4-0.4-0.8
			c0.6,0.1,1.1-0.1,1.5-0.5C278.2,51.1,278.6,50.9,279,51z"/>
		<path class="st6" d="M262,23.5c0.4-1,1.3-1.6,2.3-1.9c0.1,0,0.2,0.1,0.2,0.2c0,0.6-0.7,0.6-1,1.1c-0.2,0.5-1.2,0.8-1,1
			c0.5,0.6,0.9-0.4,1.4-0.4c0.1,0,0.3,0,0.5,0c0,0.2,0,0.5,0,0.7c-1,0-1.4,1.2-2.4,1.2C262,24.7,262,24.1,262,23.5z"/>
		<path class="st5" d="M261.5,53.6c0.5,0.2,0.9-0.2,1.3-0.4c0.1,0.5,0.6,0.5,1,0.5c0.2,0.4-0.7,0.5-0.4,1c-0.6,0.7-1.3,0.5-1.9,0.2
			C261.1,54.8,261.4,54.1,261.5,53.6z"/>
		<path class="st6" d="M264.1,18.6c0.1,0.2,0.1,0.4,0,0.6c-0.6,1.1-1.6,1.7-2.7,2.2c-0.7,0-0.7-0.5-0.6-1c0.7,0.3,1.3-0.1,1.7-0.6
			C262.9,19.2,263.3,18.7,264.1,18.6z"/>
		<path class="st5" d="M276.4,30.9c-1.1,0.8-0.2,1.8-0.3,2.7c-0.3,0-0.8,0.6-0.9-0.2c-0.1-1-0.8-1.3-1.5-1.7c1,0.4,1.5-0.7,2.3-0.9
			C276,30.8,276.2,30.8,276.4,30.9z"/>
		<path class="st6" d="M263.7,37c-0.3,0-0.6-0.1-0.8,0.2c-0.2,0.3-0.5,0.4-0.8,0.1c-0.3-0.3,0-0.6,0.1-0.8c0.5-0.7,1.1-1.3,1.7-2
			C264.6,35.5,263.8,36.2,263.7,37z"/>
		<path class="st5" d="M277.2,47.4C277.2,47.4,277.2,47.4,277.2,47.4c0.3,0,0.5-0.1,0.8-0.1c0.2,0.2,0.5,0.3,0.8,0.3
			c0.7,0.8,0.7,1.1-0.3,1.5c0-0.7-0.6-0.5-0.9-0.6C277.6,48,277.3,47.7,277.2,47.4z"/>
		<path class="st5" d="M275.9,30.2c0,0-0.1,0-0.1,0c-0.4-0.1-1.1,0.3-1.1-0.3c-0.1-0.6,0.6-0.3,0.9-0.4c0.4-0.1,0.6-0.7,1.2-0.5
			c0,0.1,0,0.2,0,0.3c-0.1,0.3-0.1,0.6-0.2,0.9C276.3,30.2,276.1,30.2,275.9,30.2z"/>
		<path class="st6" d="M279.1,45.8c-0.5,0.4-1.1,0.7-1.1,1.5c-0.2,0-0.5,0.1-0.7,0.1c-0.1-1.1,0.9-1.5,1.4-2.2c0.1,0,0.3,0,0.4,0
			C279.1,45.4,279.1,45.6,279.1,45.8z"/>
		<path class="st6" d="M260.7,17.1c0.6,0.2,1-0.4,1.5-0.3c0.1,0.6-0.2,1-0.7,1.3C261,18,260.7,17.7,260.7,17.1z"/>
		<path class="st5" d="M276.6,49.7c0.1,0,0.2,0.1,0.4,0.1c-0.1,0.4,0.2,0.5,0.6,0.6c0,0.8-0.7,0.5-1.1,0.6
			C276.3,50.6,276.1,50.1,276.6,49.7z"/>
		<path class="st6" d="M262.3,16.8c-0.1-0.4,0.2-0.7,0.4-0.9c0.2,0.1,0.4,0.3,0.6,0.4C263.1,16.7,262.8,17,262.3,16.8z"/>
		<path class="st5" d="M279.5,41.3c-0.3,0-0.6,0-0.9-0.1c-0.2,0-0.4,0-0.4-0.3c0-0.3,0.3-0.3,0.6-0.3
			C278.8,41,279.6,40.7,279.5,41.3z"/>
		<path class="st5" d="M279,50.4c-0.2-0.1-0.4-0.1-0.6-0.2c0.2-0.4,0.4-0.6,0.8-0.3C279.5,50,279.2,50.2,279,50.4z"/>
		<path class="st5" d="M279.1,45.8c0-0.2,0-0.4,0-0.6c0.9,0.1,0.6,0.7,0.4,1.3C279.3,46.2,279.4,45.9,279.1,45.8z"/>
		<path class="st6" d="M264.7,18.6c-0.2,0.1-0.4,0.1-0.6,0c0.1-0.4,0.3-0.7,0.6-1C264.7,18,264.7,18.3,264.7,18.6z"/>
		<path class="st10" d="M276.5,30.2c0.1-0.3,0.1-0.6,0.2-0.9c0.9,0,0,0.7,0.3,1c0,0,0,0,0,0C276.8,30.3,276.6,30.2,276.5,30.2z"/>
		<path class="st5" d="M279.9,42.5c-0.2-0.1-0.6,0.1-0.7-0.2c0-0.1,0.1-0.2,0.3-0.2C279.7,42.1,279.9,42.2,279.9,42.5z"/>
		<path class="st6" d="M261,23.6c0.1,0,0.3,0,0.4,0c-0.1,0.1-0.2,0.2-0.2,0.3C261.1,23.9,261.1,23.8,261,23.6z"/>
		<path class="st6" d="M264.1,20.7c-0.2,0-0.4,0-0.4-0.2c0-0.2,0.3-0.2,0.5-0.1C264.1,20.5,264.1,20.6,264.1,20.7z"/>
		<path class="st6" d="M260.7,16.5c0,0.1,0,0.2,0,0.3C260.5,16.7,260.5,16.5,260.7,16.5z"/>
		<path class="st6" d="M264.7,15.5c-0.2,0-0.3-0.1-0.3-0.2C264.6,15.2,264.7,15.3,264.7,15.5z"/>
		<path class="st6" d="M262,15.5l-0.1,0.1l-0.1,0C261.7,15.4,261.8,15.3,262,15.5z"/>
		<path class="st5" d="M264.3,54.7L264.3,54.7c0.2-0.1,0.2-0.1,0.2,0.1C264.5,54.8,264.4,54.7,264.3,54.7z"/>
		<path class="st6" d="M354.1,24.1c0.1,0,0.2,0,0.3,0c0,0.4-0.7,0.8-0.3,1.1c0.3,0.3,0.8-0.2,1.2-0.4c0.3-0.1,0.4-0.7,0.9-0.7
			c0.1,1-0.3,1.7-1.4,1.8c-0.5,0-0.9,0-1.4,0c0.1-0.7-0.2-1-1-0.9c-0.4,0-0.7-0.1-0.3-0.6C352.9,24.5,353.5,23.9,354.1,24.1z"/>
		<path class="st6" d="M352.9,39.4c0.4-0.1,0.8-0.2,1.3-0.3c0.2,0.5,0.7,0.6,1.1,0.8c-0.2,0.4,0,0.6,0.3,0.8
			c-0.7,0.4-1.4,0.8-2.1,0.1C353.8,40.1,352.8,39.9,352.9,39.4C352.9,39.3,352.9,39.4,352.9,39.4z"/>
		<path class="st5" d="M354.5,27.2c-0.1,0.4,0.2,0.5,0.5,0.5c0,0.2,0,0.5,0,0.7c0,0.2,0,0.3,0,0.5l0,0c-0.6,0-1.3,0-1.9,0
			c0-0.4,0-0.8,0-1.2c0.5,0,0.8-0.2,0.9-0.6l0,0C354.3,27.2,354.4,27.2,354.5,27.2z"/>
		<path class="st6" d="M350.8,29.4c-0.8,0.5-0.7,1,0.1,1.4c-0.8,0.4-1.1-0.6-1.7-0.6c0.3-0.8,1-1.1,1.6-1.5
			C350.8,28.9,350.8,29.1,350.8,29.4z"/>
		<path class="st6" d="M352.3,36.3c0.6,0,0.9-0.6,1.5-0.7c0,0.2,0.1,0.4,0.1,0.7c-0.2,1.1-1.1,0.6-1.7,0.7
			C352.3,36.8,352.3,36.5,352.3,36.3z"/>
		<path class="st6" d="M351.4,27.7c0.2-0.4-0.5-0.5-0.4-0.9c0.4-0.1,0.8-0.5,1.1,0C352.3,27.3,351.8,27.6,351.4,27.7z"/>
		<path class="st5" d="M353.3,33.6c0.2,0.4,0.9,0.1,0.8,0.5c-0.1,0.6-0.8,0.4-1.2,0.6c0-0.4,0-0.8,0.1-1.2
			C353,33.6,353.2,33.6,353.3,33.6z"/>
		<path class="st5" d="M357.2,27.8c-0.3,0-0.5,0-0.8,0c-0.2,0-0.3-0.1-0.5-0.1c0.3-0.9,1-0.4,1.6-0.5
			C357.4,27.3,357.3,27.6,357.2,27.8z"/>
		<path class="st6" d="M353.3,33.6c-0.1,0-0.2,0-0.4-0.1c-0.3-0.1-0.4-0.3-0.2-0.6c0.3-0.3,0.6-0.4,0.9-0.2
			C353.6,33.1,353.6,33.4,353.3,33.6z"/>
		<path class="st6" d="M355.4,34.2c-0.2-0.2-0.4-0.2-0.6-0.2c-0.2,0-0.3-0.2-0.1-0.4c0.3,0,0.6,0,0.9,0c0.2,0,0.4,0.1,0.4,0.3
			C355.8,34.1,355.6,34.2,355.4,34.2z"/>
		<path class="st6" d="M354.1,27.1c-0.1-0.6,0.3-0.6,0.7-0.7c0.2,0.1,0.5,0.1,0.7,0.2c-0.2,0.3-0.6,0.5-1,0.6
			C354.4,27.2,354.3,27.2,354.1,27.1z"/>
		<path class="st6" d="M353.2,27.3c0.3-0.2,0.6-0.3,0.9-0.1c-0.1,0.4-0.4,0.6-0.9,0.6C353.2,27.6,353.2,27.4,353.2,27.3z"/>
		<path class="st5" d="M352.3,36.3c0,0.2-0.1,0.5-0.1,0.7c0,0,0,0,0,0c-0.4-0.1-0.6-0.3-0.4-0.7C352,36.3,352.1,36.3,352.3,36.3z"/>
		<path class="st6" d="M351.4,31.1c0.2,0,0.4,0,0.6,0c0,0.2,0,0.5-0.3,0.5C351.4,31.6,351.4,31.3,351.4,31.1z"/>
		<path class="st5" d="M354.5,32.6c-0.2,0-0.4,0.1-0.6,0.1c0-0.3,0.1-0.5,0.4-0.5C354.4,32.2,354.4,32.5,354.5,32.6z"/>
		<path class="st5" d="M356.3,29c0.1-0.3,0.3-0.3,0.6-0.3C356.8,29,356.5,29,356.3,29z"/>
		<path class="st6" d="M355.9,40.7c0.1-0.1,0.3-0.1,0.4-0.2C356.2,40.8,356.1,40.8,355.9,40.7z"/>
		<path class="st2" d="M323.9,64.7c22.8,0,45.6,0,68.4,0c0.6,0,1.7-0.2,1.6,0.2c-0.1,0.8-1.1,0.4-1.6,0.4c-45.7,0-91.4,0-137,0
			c-0.6,0-1.7,0.2-1.6-0.2c0.1-0.8,1.1-0.4,1.6-0.4C278.2,64.7,301,64.7,323.9,64.7z"/>
		<path class="st6" d="M291.6,50.1c-0.6-0.4-0.6-1-0.2-1.5c0.2-0.2,0.5-0.4,0.2-0.8c-0.2-0.3-0.5-0.1-0.8,0
			c-0.7,0.2-1.4,0.1-2.1,0.1c-0.3,0-0.8,0.1-0.8-0.4c-0.1-0.4,0.1-0.7,0.4-0.9c0.2-0.1,0.4-0.2,0.7-0.4c0.3-0.2,0.8-0.2,0.6-0.7
			c-0.2-0.5-0.6-0.3-0.9-0.3c-0.5,0-0.9,0-1.4,0c-0.1-0.7,0-1.3,0.8-1.3c0.5,0,0.8-0.2,1-0.5c0.5-0.5,1.1-0.4,1.7-0.3
			c0.4,0,0.6,0.4,0.6,0.8c0,0.3,0,0.6-0.4,0.7c-0.4,0.1-0.7,0.2-0.8,0.6c-0.1,0.3-0.2,0.7,0.1,0.9c0.2,0.2,0.3-0.2,0.6-0.3
			c1-0.2,1.4,0.2,1.2,1.1c-0.2,0.9,0.2,1.2,1,0.9c0.9-0.3,0.8,0.1,0.8,0.7l0,0c-0.6-0.1-1.1,0.1-1.5,0.7
			C292.3,49.5,292.2,50.1,291.6,50.1z"/>
		<path class="st6" d="M293.1,30.8c-0.8,0.6-1.7,1.1-2.6,1.4c-0.3-0.8,0.3-1.5,0.3-2.3c0-0.4,0.4-0.7,0.8-0.8
			c0.6-0.1,0.5,0.4,0.6,0.8C292.4,30.3,293,30.3,293.1,30.8z"/>
		<path class="st5" d="M300.2,40.7c0,0.4,0.2,0.5,0.6,0.5c0.6,0,1.2,0,1.8,0c0,0.3-0.1,0.6-0.6,0.4c-0.7-0.3-1.4-0.2-2.1,0.3
			c-0.7,0.5-1.7,0.1-2.5,0.2c0.1-0.3-0.5-0.8,0.4-0.9c0.7-0.1,1.5,0,2.1-0.5C299.9,40.6,300.1,40.6,300.2,40.7z"/>
		<path class="st6" d="M302.7,32.7c0,0.2-0.2,0.6,0,0.7c0.5,0.8,0,1.1-0.6,1.4c-0.4-0.5-0.7-1.2-1.5-0.6c0-0.2-0.1-0.3-0.1-0.5
			c0.3-0.3,0.7-0.4,0.6-0.9c0-0.1-0.4-0.1-0.7-0.2c0.1-0.3-0.1-0.7,0.3-0.9c0.3,0.4,0.8,0.2,1.2,0.3
			C301.9,32.5,302.3,32.7,302.7,32.7z"/>
		<path class="st6" d="M299.8,40.6c-0.6,0.5-1.4,0.4-2.1,0.5c-0.8,0.2-0.3,0.6-0.4,0.9c-0.3,0-0.6,0-0.9,0c0-0.3,0-0.6,0-0.9
			c0.1-0.3,0.3-0.3,0.5-0.4c0.2,0,0.3,0,0.4-0.2c0.5,0,0.8-0.3,1.1-0.7C298.9,40.2,299.2,40.8,299.8,40.6z"/>
		<path class="st5" d="M300.5,34.2c0.8-0.6,1.1,0.1,1.5,0.6c0,0.4-0.4,0.6-0.3,1C300.5,35.5,300.3,35.2,300.5,34.2z"/>
		<path class="st5" d="M299.5,31.7c-0.2,0.5-0.6,0.6-1.1,0.6c-0.5,0-1.2,0.2-1.4-0.3c-0.2-0.5,0.8-0.1,1-0.6c0-0.1,0.2-0.2,0.4-0.3
			C298.9,31,299.2,31.5,299.5,31.7z"/>
		<path class="st6" d="M295.7,51.1c-0.1,0.3,0.1,0.4,0.4,0.4c0,0.4,0,0.9,0,1.3c-0.4-0.4-0.8,0.1-1.1,0c0.1-0.4,0.1-0.8-0.4-1.1
			c0-0.4,0.2-0.6,0.6-0.8C295.3,51,295.5,51,295.7,51.1z"/>
		<path class="st6" d="M292.4,41.1c0.8-0.6,2-0.4,2.6-1.4c0.2-0.3,0.5,0.1,0.5,0.4c0,0.4-0.3,0.6-0.6,0.8c-0.6,0.3-1.2,0.3-1.9,0.3
			C292.8,41.2,292.6,41.2,292.4,41.1z"/>
		<path class="st6" d="M294,48.5c0.5,0.4,1-0.7,1.4-0.1c0.3,0.5-0.7,0.5-0.6,1c0,0.1,0.1,0.2,0.1,0.3c0,0,0,0,0,0
			c-0.2,0-0.5,0-0.7,0c-0.8,0-0.9-0.3-0.3-0.8C294,48.9,294,48.7,294,48.5L294,48.5z"/>
		<path class="st6" d="M291.9,32.6c0.3,0,0.6,0.1,0.9,0.1c0,0.5-0.1,1-0.6,1.2c-0.4-0.6-1-0.1-1.5-0.3
			C290.6,32.6,291.7,33.2,291.9,32.6z"/>
		<path class="st6" d="M296,29.5c0.4,0,0.9,0,1.3,0c-0.1,0.5,0.3,1.2-0.6,1.2c-0.1-0.8-0.7-0.5-1.1-0.5
			C295.5,30,295.6,29.7,296,29.5z"/>
		<path class="st6" d="M299.5,31.7c-0.3-0.3-0.6-0.8-1.2-0.6c-0.1-0.7,0.1-1,0.8-1c0.1,0,0.3,0,0.4,0c0,0.1,0,0.2,0,0.2
			C299.3,30.8,300.1,31.3,299.5,31.7z"/>
		<path class="st6" d="M300.7,40L300.7,40l-0.2,0c-0.8,0-1.3-0.1-0.5-1c0.1-0.1,0-0.2,0-0.3l0,0C301.2,38.9,301.2,38.9,300.7,40z"/>
		<path class="st5" d="M294.9,52.8c0.4,0.1,0.8-0.4,1.1,0c0,0.1,0,0.2,0,0.3c-0.1,0-0.2,0.1-0.2,0.2c-0.3,0-0.6,0.1-0.9,0.1
			c-0.2,0-0.5,0-0.7,0c-0.1,0-0.2-0.1-0.3-0.1c0-0.3-0.1-0.6,0.2-0.9C294.4,52.7,294.6,52.8,294.9,52.8z"/>
		<path class="st5" d="M290.7,33.6c-0.1,0.2-0.2,0.4-0.3,0.6c-0.1,0.3-0.4,0.3-0.6,0.3c-0.2,0-0.4,0-0.5-0.3c0-0.2,0.1-0.3,0.3-0.3
			C289.9,33.8,290.2,33.5,290.7,33.6z"/>
		<path class="st6" d="M288.5,36.1c0-0.3,0.3-0.4,0.6-0.5c0.1,0,0.3,0,0.4,0.1c0,0.1,0.1,0.1,0.1,0.2c-0.2,0.4-0.6,0.7-0.9,1
			C288.5,36.7,288.5,36.4,288.5,36.1z"/>
		<path class="st5" d="M304.5,35.4c-0.3-0.5,0.3-1,0.1-1.5c0.7,0.3,0.3,0.9,0.3,1.4C304.8,35.4,304.7,35.4,304.5,35.4z"/>
		<path class="st5" d="M301.6,30.2c0-0.2,0-0.4,0-0.6c0.4,0,0.6,0.2,0.6,0.6c-0.3,0.1-0.2,0.6-0.6,0.6
			C301.6,30.6,301.6,30.4,301.6,30.2z"/>
		<path class="st6" d="M300.3,38.1c0-0.1,0-0.3-0.1-0.4c0.3-0.1,0.9-0.3,0.9,0.2C301.2,38.3,300.7,38.1,300.3,38.1z"/>
		<path class="st5" d="M302.2,35.8c0.5-0.2,1.1-0.3,1.6,0C303.3,36.1,302.7,36,302.2,35.8z"/>
		<path class="st5" d="M296.4,41.2c0,0.3,0,0.6,0,0.9c-0.2,0-0.4,0-0.6,0C295.8,41.6,296.1,41.3,296.4,41.2z"/>
		<path class="st5" d="M295.1,50.4c-0.2,0-0.4,0-0.5-0.1c0.1-0.2,0.2-0.4,0.3-0.6l0,0c0.2,0,0.4,0,0.5,0.2
			C295.5,50.2,295.4,50.3,295.1,50.4z"/>
		<path class="st5" d="M289.4,35.7c-0.1,0-0.3,0-0.4-0.1c-0.1-0.3-0.2-0.5-0.2-0.8C289.6,34.7,289.4,35.3,289.4,35.7z"/>
		<path class="st6" d="M304.5,35.4c0.1,0,0.3,0,0.4-0.1c0,0.3,0.2,0.7-0.3,0.9c-0.1-0.2-0.3-0.3-0.5-0.3
			C304.3,35.8,304.4,35.6,304.5,35.4z"/>
		<path class="st6" d="M291,35.7c-0.2,0-0.4,0-0.6-0.1C290.6,35.3,290.8,35.3,291,35.7z"/>
		<path class="st5" d="M290.1,49.7c0.2,0,0.4,0,0.4,0.2c0,0.1-0.3,0.1-0.4,0.1C290.1,49.9,290.1,49.8,290.1,49.7z"/>
		<path class="st6" d="M294.3,53.5c0.2,0,0.5,0,0.7,0C294.7,53.7,294.5,53.7,294.3,53.5z"/>
		<path class="st5" d="M299.5,30.2c-0.1,0-0.3,0-0.4,0c0.1-0.2,0-0.5,0.4-0.6C299.5,29.8,299.5,30,299.5,30.2z"/>
		<path class="st5" d="M304.2,35.9c0.2,0.1,0.4,0.1,0.5,0.3C304.4,36.3,304.1,36.3,304.2,35.9L304.2,35.9z"/>
		<path class="st5" d="M289.4,50.3c0,0.2-0.1,0.3-0.2,0.3C289.1,50.5,289.2,50.4,289.4,50.3z"/>
		<path class="st5" d="M293.1,53.1c0.2,0,0.3,0,0.4,0.2C293.3,53.4,293.1,53.3,293.1,53.1z"/>
		<path class="st6" d="M338.6,46.4c0.1,0.5-0.1,1.3,0.8,0.4c0.2-0.2,0.5-0.4,0.8-0.3c0,0.5,0,0.8,0.7,0.9c0.6,0.1,1.1,0.3,0.3,1
			c-0.9,0.8-0.9,1.1,0.2,1.7c0.9,0.5,0.6,1.4,1.1,1.9c0.2,0.2,0,0.5-0.3,0.5c-0.4,0.1-0.5,0.3-0.5,0.6l0,0c-0.7,0.1-1.3-0.1-1.5-0.8
			c-0.2-0.8-0.7-1-1.5-0.7c-0.4,0.1-0.9,0-1.3,0c0.9-0.7,1.1-1.8,1.6-2.8c0.1-0.2,0.3-0.4,0.2-0.7c-0.2-0.2-0.5-0.1-0.7,0
			c-0.3,0.1-0.6,0.3-0.8,0c-0.3-0.4,0.2-0.6,0.3-0.9C338,46.9,338.1,46.5,338.6,46.4z"/>
		<path class="st6" d="M339.2,30.5c-0.5,0.1-0.9,0.4-1.5,0.3c-0.4,0-1,0.3-1.2-0.2c-0.1-0.4,0.2-0.8,0.5-1.2c0.3-0.4,0.7-0.7,1-1.1
			c0.4-0.5-0.1-0.6-0.4-0.6c0.1-0.2,0.2-0.4,0.3-0.5c0-0.1,0-0.2,0-0.3c0.4,0,0.8-0.1,1.2-0.1c0.1,0.4,0.1,0.8,0.4,1.1
			c0.3,0.2,0.1,0.4-0.2,0.6c-0.6,0.2-1.1,0.5-1.1,1.2c-0.2,0-0.5,0-0.5,0.4c0,0,0.1,0.1,0.1,0.1c0.4,0,0.3-0.3,0.3-0.5
			c0.3,0,0.6,0,0.9,0C339.2,29.9,339.2,30.2,339.2,30.5z"/>
		<path class="st5" d="M338.6,46.4c-0.1-0.5-0.3-0.7-0.8-0.5c-0.2,0.1-0.4,0.2-0.7,0.2c-0.2-0.6-0.5-1.1-0.7-1.7
			c0.8-0.6,1.1-1.6,1.8-2.3c0,0.2,0.1,0.4,0.1,0.5c0.1,0.5-0.3,0.8-0.4,1.2c-0.1,0.3-0.7,0.5-0.3,0.9c0.3,0.3,0.6,0,1-0.1
			c0.2-0.1,0.4-0.1,0.6-0.1c0.1,0,0.1,0.1,0.2,0.2c-0.2,0.3-0.3,0.6-0.1,1C339.3,46.1,339.1,46.4,338.6,46.4z"/>
		<path class="st6" d="M337.1,14c0.3,0.4,0.6,0.7,1.2,0.6c-0.1,0.1-0.2,0.3-0.3,0.3c-0.5,0.2-0.3,0.9-0.9,1
			C337.5,15.3,336.5,14.7,337.1,14z"/>
		<path class="st5" d="M341.2,14.7c-0.3,0-0.6,0-0.9,0c-0.1-0.4,0.1-0.7,0.5-0.7C341.2,14.1,341.3,14.3,341.2,14.7z"/>
		<path class="st5" d="M339.8,15.2c0,0.3,0,0.6,0,0.8c-0.4,0.4-0.5,0-0.5-0.2C339.2,15.6,339.5,15.4,339.8,15.2z"/>
		<path class="st5" d="M339.7,17c0,0.1-0.1,0.2-0.1,0.2c-0.2-0.1-0.3-0.2-0.5-0.3c-0.1-0.1,0-0.1,0.1-0.2
			C339.4,16.8,339.6,16.8,339.7,17z"/>
		<path class="st5" d="M337.7,26.6c0.1,0.1,0.2,0.2,0.3,0.3c0,0.1,0,0.2,0,0.3C337.3,27,337.3,27,337.7,26.6z"/>
		<path class="st6" d="M341.6,53.1c0,0,0.1,0.1,0.1,0.1c0,0-0.1,0-0.1,0C341.7,53.2,341.6,53.1,341.6,53.1
			C341.6,53.1,341.6,53.1,341.6,53.1z"/>
		<path class="st0" d="M121.7,37.6c0-0.4-0.1-0.8-0.1-1.2c0-8.7,0-17.5,0-26.2c0-0.4,0.1-0.8,0.1-1.2c0.5,0.4,0.3,0.9,0.3,1.4
			c0,8.6,0,17.2,0,25.8C122,36.7,122.2,37.2,121.7,37.6z"/>
		<path class="st1" d="M313.9,47.9c-0.1-0.1-0.1-0.1-0.2-0.2c0,0,0.1,0,0.1,0C313.8,47.8,313.8,47.9,313.9,47.9
			C313.8,47.9,313.9,47.9,313.9,47.9z"/>
		<path class="st1" d="M369.9,47.4c0-0.2,0-0.5,0-0.7c0.3,0,0.6-0.2,0.9,0C371,47.5,370.7,47.8,369.9,47.4z"/>
		<path class="st1" d="M371.2,48.8c0,0.2-0.2,0.3-0.4,0.3c-0.1,0-0.2-0.2-0.2-0.3c0-0.2,0.2-0.3,0.4-0.3
			C371.1,48.5,371.3,48.6,371.2,48.8z"/>
		<path class="st1" d="M370.3,49.5C370.3,49.6,370.3,49.6,370.3,49.5c-0.1,0.2-0.1,0.2-0.2,0C370.1,49.6,370.1,49.5,370.3,49.5
			C370.2,49.5,370.2,49.5,370.3,49.5z"/>
		<path class="st6" d="M380.1,28.7c-0.1,0.3-0.4,0.3-0.6,0.3c-0.1,0-0.2-0.2-0.1-0.2c0.2-0.2,0.4-0.2,0.7-0.2L380.1,28.7z"/>
		<path class="st0" d="M145.9,33.4c-0.2-4,0.8-7.7,2.8-11c1.7-2.8,3.8-5,7-6.3c2.3-0.9,4.5-0.6,6.8-0.5c1.2,0.1,2.2,0.6,3.2,1
			c2.1,0.8,3.6,2.5,4.9,4.3c3.9,5.4,4.7,11.5,3.3,17.9c-0.9,4.1-3,7.7-6.3,10.2c-3.5,2.6-7.6,3.3-11.6,1.7c-4.1-1.6-6.8-4.8-8.5-8.9
			C146.4,39.2,145.8,36.4,145.9,33.4z M172.7,33.2c-0.1-1.2,0-2.7-0.4-4.2c-0.8-3-2.1-5.6-4.2-7.9c-2.2-2.4-4.9-3.2-7.9-3.7
			c-1.4-0.2-2.7,0.8-4,1c-1.5,0.3-2.6,1.4-3.6,2.4c-2.3,2.3-3.7,5.1-4.3,8.3c-1.2,6.9-0.1,13.1,5.4,17.9c1.3,1.2,3.1,1.7,4.7,2.2
			c1.4,0.4,2.8,0,4.2,0.2c0.4,0,0.7-0.1,1-0.4c0.3-0.3,0.7-0.6,1.1-0.8c2.4-0.8,3.8-2.7,5.2-4.7C171.9,40.6,172.7,37.2,172.7,33.2z"
			/>
		<path class="st5" d="M274.1,27.5c0,0.5,0,1.1,0,1.9C273.7,28.5,273.9,27.9,274.1,27.5z"/>
		<path class="st6" d="M276.5,30.2c0.2,0,0.4,0.1,0.5,0.1c0,0.4-0.3,0.5-0.6,0.6c-0.2,0-0.3-0.1-0.5-0.1c0-0.2,0-0.4,0-0.6
			C276.1,30.2,276.3,30.2,276.5,30.2z"/>
		<path class="st5" d="M278.2,43.1c0,0.7-0.4,1-1,1.1c-0.1,0-0.2-0.1-0.2-0.2c0.1-0.6,0.3-1,1-1.1C278.1,43,278.2,43,278.2,43.1z"/>
		<path class="st5" d="M278,42.9c0.1-0.2,0.2-0.5,0.5-0.4c0.1,0,0.2,0.1,0.2,0.2c0,0.3-0.3,0.3-0.5,0.4C278.2,43,278.1,43,278,42.9z
			"/>
		<polygon class="st5" points="277.6,41.3 277.7,41.3 277.7,41.4 		"/>
		<path class="st6" d="M355.9,27.7c0.2,0,0.3,0.1,0.5,0.1c-0.1,0.8-0.8,0.6-1.3,0.7c0-0.2,0-0.5,0-0.7
			C355.3,27.7,355.6,27.7,355.9,27.7z"/>
		<path class="st1" d="M300.1,38.7c0,0.1,0,0.2,0,0.3c-0.8,0.8-0.3,1,0.5,1c-0.1,0.3-0.1,0.6-0.4,0.7c-0.1,0-0.2,0-0.3,0
			c-0.6,0.2-0.9-0.4-1.4-0.7c0-0.1,0-0.1,0-0.2c0-0.2,0-0.5,0-0.7C299.1,38.9,299.6,38.8,300.1,38.7z"/>
		<path class="st6" d="M298.6,39c0,0.2,0,0.5,0,0.7C298.2,39.5,298,39.2,298.6,39z"/>
		<path class="st5" d="M297.4,40.6c-0.1,0.2-0.2,0.2-0.4,0.2C297.1,40.7,297.2,40.7,297.4,40.6z"/>
		<path class="st1" d="M294.9,49.7c-0.1,0.2-0.2,0.4-0.3,0.6c-0.3,0-0.5,0.1-0.8,0.1c-0.5-0.1-0.7,0-0.7,0.5
			c-0.3,0.1-0.6,0.1-0.8,0.2c-0.2-0.1-0.5-0.1-0.8-0.1c-0.1-0.4,0-0.7,0.1-1c0.6,0,0.7-0.5,0.9-0.9c0.4-0.6,0.9-0.7,1.5-0.7
			c0,0.1,0,0.3-0.1,0.4c-0.6,0.6-0.5,0.8,0.3,0.8C294.4,49.8,294.7,49.7,294.9,49.7z"/>
		<path class="st1" d="M294.9,52.8c-0.3,0-0.6-0.1-0.8-0.3c0-0.3,0.1-0.6,0.4-0.7C295,51.9,295,52.4,294.9,52.8z"/>
		<path class="st11" d="M293.1,51c0-0.5,0.3-0.7,0.7-0.5C293.8,50.9,293.5,51,293.1,51z"/>
		<path class="st5" d="M291.5,51.1c0.3-0.1,0.5-0.1,0.8,0.1C292,51.6,291.7,51.6,291.5,51.1z"/>
		<path class="st6" d="M338.3,42.6c0-0.2-0.1-0.4-0.1-0.5c0-0.5,0.7-0.9,0.2-1.4c-0.2-0.2-0.4-0.3-0.2-0.6c0.1-0.2,0.4-0.2,0.6-0.2
			c0.4,0,0.6,0.2,0.6,0.6C339.2,41.3,339.1,42.1,338.3,42.6z"/>
		<path class="st6" d="M339.1,44.5c0.2-0.1,0.3-0.2,0.5-0.3c0.3-0.1,0.6,0,0.5,0.3c-0.1,0.4-0.4,0.1-0.6,0.1c-0.1,0-0.2,0-0.3,0
			C339.2,44.6,339.2,44.5,339.1,44.5z"/>
	</g>
</g>
</svg>
